999
dxfrw 0.5.11
0
SECTION
2
HEADER
9
$ACADVER
1
AC1021
9
$HANDSEED
5
20000
9
$DWGCODEPAGE
3
ANSI_1252
9
$INSBASE
10
0
20
0
30
0
9
$EXTMIN
10
0
20
-123
30
0
9
$EXTMAX
10
250
20
0
30
0
9
$LIMMIN
10
0
20
0
9
$LIMMAX
10
420
20
297
9
$ORTHOMODE
70
0
9
$LTSCALE
40
1
9
$TEXTSTYLE
7
STANDARD
9
$CLAYER
8
back
9
$DIMASZ
40
2.5
9
$DIMLFAC
40
1
9
$DIMSCALE
40
1
9
$DIMEXO
40
0.625
9
$DIMEXE
40
1.25
9
$DIMTXT
40
2.5
9
$DIMTSZ
40
0
9
$DIMAUNIT
70
0
9
$DIMADEC
70
1
9
$DIMLUNIT
70
2
9
$DIMSTYLE
2
STANDARD
9
$DIMGAP
40
0.625
9
$DIMTIH
70
0
9
$LUNITS
70
2
9
$LUPREC
70
1
9
$AUNITS
70
0
9
$AUPREC
70
1
9
$SPLINESEGS
70
8
9
$GRIDMODE
70
1
9
$SNAPSTYLE
70
0
9
$GRIDUNIT
10
1
20
1
9
$PINSBASE
10
12.5
20
181.43180038
30
0
9
$PLIMMIN
10
0
20
0
9
$PLIMMAX
10
297
20
210
9
$INSUNITS
70
4
9
$PSVPSCALE
40
1
0
ENDSEC
0
SECTION
2
CLASSES
0
ENDSEC
0
SECTION
2
TABLES
0
TABLE
2
VPORT
5
8
330
0
100
AcDbSymbolTable
70
1
0
VPORT
5
31
330
2
100
AcDbSymbolTableRecord
100
AcDbViewportTableRecord
2
*ACTIVE
70
0
10
0
20
0
11
1
21
1
12
256.512945669
22
57.1155307221
13
0
23
0
14
10
24
10
15
1
25
1
16
0
26
0
36
1
17
0
27
0
37
0
40
333.230256166
41
2.22920892495
42
50
43
0
44
0
50
0
51
0
71
0
72
100
73
1
74
3
75
0
76
1
77
0
78
0
281
0
65
1
110
0
120
0
130
0
111
1
121
0
131
0
112
0
122
1
132
0
79
0
146
0
348
10020
60
3
61
5
292
1
282
1
141
0
142
0
63
250
421
3358443
0
ENDTAB
0
TABLE
2
LTYPE
5
5
330
0
100
AcDbSymbolTable
70
4
0
LTYPE
5
14
330
5
100
AcDbSymbolTableRecord
100
AcDbLinetypeTableRecord
2
ByBlock
70
0
3

72
65
73
0
40
0
0
LTYPE
5
15
330
5
100
AcDbSymbolTableRecord
100
AcDbLinetypeTableRecord
2
ByLayer
70
0
3

72
65
73
0
40
0
0
LTYPE
5
16
330
5
100
AcDbSymbolTableRecord
100
AcDbLinetypeTableRecord
2
Continuous
70
0
3
Solid line
72
65
73
0
40
0
0
LTYPE
5
32
330
5
100
AcDbSymbolTableRecord
100
AcDbLinetypeTableRecord
2
DOT
70
0
3
Dot . . . . . . . . . . . . . . . . . . . . . .
72
65
73
2
40
6.35
49
0
74
0
49
-6.35
74
0
0
LTYPE
5
33
330
5
100
AcDbSymbolTableRecord
100
AcDbLinetypeTableRecord
2
DOT2
70
0
3
Dot (.5x) .....................................
72
65
73
2
40
3.175
49
0
74
0
49
-3.175
74
0
0
LTYPE
5
34
330
5
100
AcDbSymbolTableRecord
100
AcDbLinetypeTableRecord
2
DOTX2
70
0
3
Dot (2x) .  .  .  .  .  .  .  .  .  .  .  .  .
72
65
73
2
40
12.7
49
0
74
0
49
-12.7
74
0
0
LTYPE
5
35
330
5
100
AcDbSymbolTableRecord
100
AcDbLinetypeTableRecord
2
DASHED
70
0
3
Dot . . . . . . . . . . . . . . . . . . . . . .
72
65
73
2
40
19.05
49
12.7
74
0
49
-6.35
74
0
0
LTYPE
5
36
330
5
100
AcDbSymbolTableRecord
100
AcDbLinetypeTableRecord
2
DASHED2
70
0
3
Dashed (.5x) _ _ _ _ _ _ _ _ _ _ _ _ _ _ _ _ _
72
65
73
2
40
9.525
49
6.35
74
0
49
-3.175
74
0
0
LTYPE
5
37
330
5
100
AcDbSymbolTableRecord
100
AcDbLinetypeTableRecord
2
DASHEDX2
70
0
3
Dashed (2x) ____  ____  ____  ____  ____  ___
72
65
73
2
40
38.1
49
25.4
74
0
49
-12.7
74
0
0
LTYPE
5
38
330
5
100
AcDbSymbolTableRecord
100
AcDbLinetypeTableRecord
2
DASHDOT
70
0
3
Dash dot __ . __ . __ . __ . __ . __ . __ . __
72
65
73
4
40
25.4
49
12.7
74
0
49
-6.35
74
0
49
0
74
0
49
-6.35
74
0
0
LTYPE
5
39
330
5
100
AcDbSymbolTableRecord
100
AcDbLinetypeTableRecord
2
DASHDOT2
70
0
3
Dash dot (.5x) _._._._._._._._._._._._._._._.
72
65
73
4
40
12.7
49
6.35
74
0
49
-3.175
74
0
49
0
74
0
49
-3.175
74
0
0
LTYPE
5
3A
330
5
100
AcDbSymbolTableRecord
100
AcDbLinetypeTableRecord
2
DASHDOTX2
70
0
3
Dash dot (2x) ____  .  ____  .  ____  .  ___
72
65
73
4
40
50.8
49
25.4
74
0
49
-12.7
74
0
49
0
74
0
49
-12.7
74
0
0
LTYPE
5
3B
330
5
100
AcDbSymbolTableRecord
100
AcDbLinetypeTableRecord
2
DIVIDE
70
0
3
Divide ____ . . ____ . . ____ . . ____ . . ____
72
65
73
6
40
31.75
49
12.7
74
0
49
-6.35
74
0
49
0
74
0
49
-6.35
74
0
49
0
74
0
49
-6.35
74
0
0
LTYPE
5
3C
330
5
100
AcDbSymbolTableRecord
100
AcDbLinetypeTableRecord
2
DIVIDE2
70
0
3
Divide (.5x) __..__..__..__..__..__..__..__.._
72
65
73
6
40
15.875
49
6.35
74
0
49
-3.175
74
0
49
0
74
0
49
-3.175
74
0
49
0
74
0
49
-3.175
74
0
0
LTYPE
5
3D
330
5
100
AcDbSymbolTableRecord
100
AcDbLinetypeTableRecord
2
DIVIDEX2
70
0
3
Divide (2x) ________  .  .  ________  .  .  _
72
65
73
6
40
63.5
49
25.4
74
0
49
-12.7
74
0
49
0
74
0
49
-12.7
74
0
49
0
74
0
49
-12.7
74
0
0
LTYPE
5
3E
330
5
100
AcDbSymbolTableRecord
100
AcDbLinetypeTableRecord
2
BORDER
70
0
3
Border __ __ . __ __ . __ __ . __ __ . __ __ .
72
65
73
6
40
44.45
49
12.7
74
0
49
-6.35
74
0
49
12.7
74
0
49
-6.35
74
0
49
0
74
0
49
-6.35
74
0
0
LTYPE
5
3F
330
5
100
AcDbSymbolTableRecord
100
AcDbLinetypeTableRecord
2
BORDER2
70
0
3
Border (.5x) __.__.__.__.__.__.__.__.__.__.__.
72
65
73
6
40
22.225
49
6.35
74
0
49
-3.175
74
0
49
6.35
74
0
49
-3.175
74
0
49
0
74
0
49
-3.175
74
0
0
LTYPE
5
40
330
5
100
AcDbSymbolTableRecord
100
AcDbLinetypeTableRecord
2
BORDERX2
70
0
3
Border (2x) ____  ____  .  ____  ____  .  ___
72
65
73
6
40
88.9
49
25.4
74
0
49
-12.7
74
0
49
25.4
74
0
49
-12.7
74
0
49
0
74
0
49
-12.7
74
0
0
LTYPE
5
41
330
5
100
AcDbSymbolTableRecord
100
AcDbLinetypeTableRecord
2
CENTER
70
0
3
Center ____ _ ____ _ ____ _ ____ _ ____ _ ____
72
65
73
4
40
50.8
49
31.75
74
0
49
-6.35
74
0
49
6.35
74
0
49
-6.35
74
0
0
LTYPE
5
42
330
5
100
AcDbSymbolTableRecord
100
AcDbLinetypeTableRecord
2
CENTER2
70
0
3
Center (.5x) ___ _ ___ _ ___ _ ___ _ ___ _ ___
72
65
73
4
40
28.575
49
19.05
74
0
49
-3.175
74
0
49
3.175
74
0
49
-3.175
74
0
0
LTYPE
5
43
330
5
100
AcDbSymbolTableRecord
100
AcDbLinetypeTableRecord
2
CENTERX2
70
0
3
Center (2x) ________  __  ________  __  _____
72
65
73
4
40
101.6
49
63.5
74
0
49
-12.7
74
0
49
12.7
74
0
49
-12.7
74
0
0
ENDTAB
0
TABLE
2
LAYER
5
2
330
0
100
AcDbSymbolTable
70
1
0
LAYER
5
10
330
2
100
AcDbSymbolTableRecord
100
AcDbLayerTableRecord
2
0
70
5
62
7
6
CONTINUOUS
290
0
370
0
390
F
0
LAYER
5
44
330
2
100
AcDbSymbolTableRecord
100
AcDbLayerTableRecord
2
back
70
0
62
56
420
8421376
6
CONTINUOUS
370
25
390
F
0
LAYER
5
45
330
2
100
AcDbSymbolTableRecord
100
AcDbLayerTableRecord
2
front
70
0
62
96
420
32768
6
CONTINUOUS
370
25
390
F
0
LAYER
5
46
330
2
100
AcDbSymbolTableRecord
100
AcDbLayerTableRecord
2
hilfslinien
70
0
62
1
6
CONTINUOUS
290
0
370
0
390
F
0
ENDTAB
0
TABLE
2
STYLE
5
3
330
0
100
AcDbSymbolTable
70
3
0
STYLE
5
47
330
2
100
AcDbSymbolTableRecord
100
AcDbTextStyleTableRecord
2
standard
70
0
40
0
41
1
50
0
71
0
42
1
3
standard
4

0
ENDTAB
0
TABLE
2
VIEW
5
6
330
0
100
AcDbSymbolTable
70
0
0
ENDTAB
0
TABLE
2
UCS
5
7
330
0
100
AcDbSymbolTable
70
0
0
ENDTAB
0
TABLE
2
APPID
5
9
330
0
100
AcDbSymbolTable
70
1
0
APPID
5
12
330
9
100
AcDbSymbolTableRecord
100
AcDbRegAppTableRecord
2
ACAD
70
0
0
ENDTAB
0
TABLE
2
DIMSTYLE
5
A
330
0
100
AcDbSymbolTable
70
1
100
AcDbDimStyleTable
71
1
0
DIMSTYLE
105
48
330
A
100
AcDbSymbolTableRecord
100
AcDbDimStyleTableRecord
2
Standard
70
0
40
1
41
2.5
42
0.625
43
0.38
44
1.25
45
0
46
0
47
0
48
0
140
2.5
141
0.09
142
0
143
25.4
144
1
145
0
146
1
147
0.625
148
0
71
0
72
0
73
0
74
1
75
0
76
0
77
0
78
0
79
0
170
0
171
2
172
0
173
0
174
0
175
0
176
0
177
0
178
0
179
0
271
4
272
4
273
2
274
2
275
0
276
0
277
2
278
46
279
0
280
0
281
0
282
0
283
1
284
0
285
0
286
0
288
0
289
3
340
Standard
341

371
-2
372
-2
0
ENDTAB
0
TABLE
2
BLOCK_RECORD
5
1
330
0
100
AcDbSymbolTable
70
2
0
BLOCK_RECORD
5
1F
330
1
100
AcDbSymbolTableRecord
100
AcDbBlockTableRecord
2
*Model_Space
70
0
280
1
281
0
0
BLOCK_RECORD
5
1E
330
1
100
AcDbSymbolTableRecord
100
AcDbBlockTableRecord
2
*Paper_Space
70
0
280
1
281
0
0
BLOCK_RECORD
5
49
330
1
100
AcDbSymbolTableRecord
100
AcDbBlockTableRecord
2
*D17
70
0
280
1
281
0
0
BLOCK_RECORD
5
4C
330
1
100
AcDbSymbolTableRecord
100
AcDbBlockTableRecord
2
*D38
70
0
280
1
281
0
0
BLOCK_RECORD
5
4F
330
1
100
AcDbSymbolTableRecord
100
AcDbBlockTableRecord
2
*D28
70
0
280
1
281
0
0
BLOCK_RECORD
5
52
330
1
100
AcDbSymbolTableRecord
100
AcDbBlockTableRecord
2
*D25
70
0
280
1
281
0
0
BLOCK_RECORD
5
55
330
1
100
AcDbSymbolTableRecord
100
AcDbBlockTableRecord
2
*D39
70
0
280
1
281
0
0
BLOCK_RECORD
5
58
330
1
100
AcDbSymbolTableRecord
100
AcDbBlockTableRecord
2
*D48
70
0
280
1
281
0
0
BLOCK_RECORD
5
5B
330
1
100
AcDbSymbolTableRecord
100
AcDbBlockTableRecord
2
*D13
70
0
280
1
281
0
0
BLOCK_RECORD
5
5E
330
1
100
AcDbSymbolTableRecord
100
AcDbBlockTableRecord
2
*D16
70
0
280
1
281
0
0
BLOCK_RECORD
5
61
330
1
100
AcDbSymbolTableRecord
100
AcDbBlockTableRecord
2
*D14
70
0
280
1
281
0
0
BLOCK_RECORD
5
64
330
1
100
AcDbSymbolTableRecord
100
AcDbBlockTableRecord
2
*D41
70
0
280
1
281
0
0
BLOCK_RECORD
5
67
330
1
100
AcDbSymbolTableRecord
100
AcDbBlockTableRecord
2
*D6
70
0
280
1
281
0
0
BLOCK_RECORD
5
6A
330
1
100
AcDbSymbolTableRecord
100
AcDbBlockTableRecord
2
*D40
70
0
280
1
281
0
0
BLOCK_RECORD
5
6D
330
1
100
AcDbSymbolTableRecord
100
AcDbBlockTableRecord
2
*D11
70
0
280
1
281
0
0
BLOCK_RECORD
5
70
330
1
100
AcDbSymbolTableRecord
100
AcDbBlockTableRecord
2
*D43
70
0
280
1
281
0
0
BLOCK_RECORD
5
73
330
1
100
AcDbSymbolTableRecord
100
AcDbBlockTableRecord
2
*D7
70
0
280
1
281
0
0
BLOCK_RECORD
5
76
330
1
100
AcDbSymbolTableRecord
100
AcDbBlockTableRecord
2
*D9
70
0
280
1
281
0
0
BLOCK_RECORD
5
79
330
1
100
AcDbSymbolTableRecord
100
AcDbBlockTableRecord
2
*D36
70
0
280
1
281
0
0
BLOCK_RECORD
5
7C
330
1
100
AcDbSymbolTableRecord
100
AcDbBlockTableRecord
2
*D30
70
0
280
1
281
0
0
BLOCK_RECORD
5
7F
330
1
100
AcDbSymbolTableRecord
100
AcDbBlockTableRecord
2
*D10
70
0
280
1
281
0
0
BLOCK_RECORD
5
82
330
1
100
AcDbSymbolTableRecord
100
AcDbBlockTableRecord
2
*D44
70
0
280
1
281
0
0
BLOCK_RECORD
5
85
330
1
100
AcDbSymbolTableRecord
100
AcDbBlockTableRecord
2
*D23
70
0
280
1
281
0
0
BLOCK_RECORD
5
88
330
1
100
AcDbSymbolTableRecord
100
AcDbBlockTableRecord
2
*D29
70
0
280
1
281
0
0
BLOCK_RECORD
5
8B
330
1
100
AcDbSymbolTableRecord
100
AcDbBlockTableRecord
2
*D18
70
0
280
1
281
0
0
BLOCK_RECORD
5
8E
330
1
100
AcDbSymbolTableRecord
100
AcDbBlockTableRecord
2
*D2
70
0
280
1
281
0
0
BLOCK_RECORD
5
91
330
1
100
AcDbSymbolTableRecord
100
AcDbBlockTableRecord
2
*D47
70
0
280
1
281
0
0
BLOCK_RECORD
5
94
330
1
100
AcDbSymbolTableRecord
100
AcDbBlockTableRecord
2
*D32
70
0
280
1
281
0
0
BLOCK_RECORD
5
97
330
1
100
AcDbSymbolTableRecord
100
AcDbBlockTableRecord
2
*D33
70
0
280
1
281
0
0
BLOCK_RECORD
5
9A
330
1
100
AcDbSymbolTableRecord
100
AcDbBlockTableRecord
2
*D8
70
0
280
1
281
0
0
BLOCK_RECORD
5
9D
330
1
100
AcDbSymbolTableRecord
100
AcDbBlockTableRecord
2
*D26
70
0
280
1
281
0
0
BLOCK_RECORD
5
A0
330
1
100
AcDbSymbolTableRecord
100
AcDbBlockTableRecord
2
*D34
70
0
280
1
281
0
0
BLOCK_RECORD
5
A3
330
1
100
AcDbSymbolTableRecord
100
AcDbBlockTableRecord
2
*D27
70
0
280
1
281
0
0
BLOCK_RECORD
5
A6
330
1
100
AcDbSymbolTableRecord
100
AcDbBlockTableRecord
2
*D22
70
0
280
1
281
0
0
BLOCK_RECORD
5
A9
330
1
100
AcDbSymbolTableRecord
100
AcDbBlockTableRecord
2
*D21
70
0
280
1
281
0
0
BLOCK_RECORD
5
AC
330
1
100
AcDbSymbolTableRecord
100
AcDbBlockTableRecord
2
*D15
70
0
280
1
281
0
0
BLOCK_RECORD
5
AF
330
1
100
AcDbSymbolTableRecord
100
AcDbBlockTableRecord
2
*D3
70
0
280
1
281
0
0
BLOCK_RECORD
5
B2
330
1
100
AcDbSymbolTableRecord
100
AcDbBlockTableRecord
2
*D42
70
0
280
1
281
0
0
BLOCK_RECORD
5
B5
330
1
100
AcDbSymbolTableRecord
100
AcDbBlockTableRecord
2
*D20
70
0
280
1
281
0
0
BLOCK_RECORD
5
B8
330
1
100
AcDbSymbolTableRecord
100
AcDbBlockTableRecord
2
*D31
70
0
280
1
281
0
0
BLOCK_RECORD
5
BB
330
1
100
AcDbSymbolTableRecord
100
AcDbBlockTableRecord
2
*D19
70
0
280
1
281
0
0
BLOCK_RECORD
5
BE
330
1
100
AcDbSymbolTableRecord
100
AcDbBlockTableRecord
2
*D24
70
0
280
1
281
0
0
BLOCK_RECORD
5
C1
330
1
100
AcDbSymbolTableRecord
100
AcDbBlockTableRecord
2
*D5
70
0
280
1
281
0
0
BLOCK_RECORD
5
C4
330
1
100
AcDbSymbolTableRecord
100
AcDbBlockTableRecord
2
*D35
70
0
280
1
281
0
0
BLOCK_RECORD
5
C7
330
1
100
AcDbSymbolTableRecord
100
AcDbBlockTableRecord
2
*D37
70
0
280
1
281
0
0
BLOCK_RECORD
5
CA
330
1
100
AcDbSymbolTableRecord
100
AcDbBlockTableRecord
2
*D12
70
0
280
1
281
0
0
BLOCK_RECORD
5
CD
330
1
100
AcDbSymbolTableRecord
100
AcDbBlockTableRecord
2
*D45
70
0
280
1
281
0
0
BLOCK_RECORD
5
D0
330
1
100
AcDbSymbolTableRecord
100
AcDbBlockTableRecord
2
*D4
70
0
280
1
281
0
0
BLOCK_RECORD
5
D3
330
1
100
AcDbSymbolTableRecord
100
AcDbBlockTableRecord
2
*D46
70
0
280
1
281
0
0
BLOCK_RECORD
5
D6
330
1
100
AcDbSymbolTableRecord
100
AcDbBlockTableRecord
2
*D1
70
0
280
1
281
0
0
ENDTAB
0
ENDSEC
0
SECTION
2
BLOCKS
0
BLOCK
5
20
330
1F
100
AcDbEntity
8
0
100
AcDbBlockBegin
2
*Model_Space
70
0
10
0
20
0
30
0
3
*Model_Space
1

0
ENDBLK
5
21
330
1F
100
AcDbEntity
8
0
100
AcDbBlockEnd
0
BLOCK
5
1C
330
1B
100
AcDbEntity
8
0
100
AcDbBlockBegin
2
*Paper_Space
70
0
10
0
20
0
30
0
3
*Paper_Space
1

0
ENDBLK
5
1D
330
1F
100
AcDbEntity
8
0
100
AcDbBlockEnd
0
BLOCK
5
4A
330
49
100
AcDbEntity
8
0
100
AcDbBlockBegin
2
*D17
70
1
10
0
20
0
3
*D17
1

0
LINE
5
D9
100
AcDbEntity
8
front
6
CONTINUOUS
62
7
370
0
100
AcDbLine
10
67.625
20
-12.1081474773
11
242.625
21
-12.1081474773
0
SOLID
5
DA
100
AcDbEntity
8
front
6
CONTINUOUS
62
7
370
0
100
AcDbTrace
10
67.625
20
-12.1081474773
30
0
11
70.125
21
-11.6918628195
31
0
12
70.125
22
-12.5244321351
32
0
13
70.125
23
-12.5244321351
33
0
0
SOLID
5
DB
100
AcDbEntity
8
front
6
CONTINUOUS
62
7
370
0
100
AcDbTrace
10
242.625
20
-12.1081474773
30
0
11
240.125
21
-12.5244321351
31
0
12
240.125
22
-11.6918628195
32
0
13
240.125
23
-11.6918628195
33
0
0
MTEXT
5
DC
100
AcDbEntity
8
front
6
CONTINUOUS
62
7
370
0
100
AcDbMText
10
155.125
20
-10.2331474773
30
0
40
2.5
41
4.44444444444
71
5
72
1
1
175
7
standard
210
0
220
0
230
1
50
0
73
2
44
1
0
LINE
5
DD
100
AcDbEntity
8
front
6
CONTINUOUS
62
7
370
0
100
AcDbLine
10
67.625
20
-14.375
11
67.625
21
-10.8581474773
0
LINE
5
DE
100
AcDbEntity
8
front
6
CONTINUOUS
62
7
370
0
100
AcDbLine
10
242.625
20
-14.375
11
242.625
21
-10.8581474773
0
ENDBLK
5
4B
330
49
100
AcDbEntity
8
0
100
AcDbBlockEnd
0
BLOCK
5
4D
330
4C
100
AcDbEntity
8
0
100
AcDbBlockBegin
2
*D38
70
1
10
0
20
0
3
*D38
1

0
SOLID
5
DF
100
AcDbEntity
8
back
6
CONTINUOUS
62
7
370
0
100
AcDbTrace
10
196.875
20
-75.5
30
0
11
194.375
21
-75.9162846578
31
0
12
194.375
22
-75.0837153422
32
0
13
194.375
23
-75.0837153422
33
0
0
LINE
5
E0
100
AcDbEntity
8
back
6
CONTINUOUS
62
7
370
0
100
AcDbLine
10
198.375
20
-75.5
11
188.541666667
21
-75.5
0
MTEXT
5
E1
100
AcDbEntity
8
back
6
CONTINUOUS
62
7
370
0
100
AcDbMText
10
192.708333333
20
-73.625
30
0
40
2.5
41
3.33333333333
71
5
72
1
1
1.5
7
standard
210
0
220
0
230
1
50
360
73
2
44
1
0
ENDBLK
5
4E
330
4C
100
AcDbEntity
8
0
100
AcDbBlockEnd
0
BLOCK
5
50
330
4F
100
AcDbEntity
8
0
100
AcDbBlockBegin
2
*D28
70
1
10
0
20
0
3
*D28
1

0
SOLID
5
E2
100
AcDbEntity
8
front
6
CONTINUOUS
62
7
370
0
100
AcDbTrace
10
36.0999974938
20
-95.2804522806
30
0
11
33.5999974938
21
-95.6967369384
31
0
12
33.5999974938
22
-94.8641676228
32
0
13
33.5999974938
23
-94.8641676228
33
0
0
LINE
5
E3
100
AcDbEntity
8
front
6
CONTINUOUS
62
7
370
0
100
AcDbLine
10
43.2499974938
20
-95.2804522806
11
27.2111086049
21
-95.2804522806
0
MTEXT
5
E4
100
AcDbEntity
8
front
6
CONTINUOUS
62
7
370
0
100
AcDbMText
10
30.7192712368
20
-93.4054522806
30
0
40
2.5
41
3.88888888889
71
5
72
1
1
7.2
7
standard
210
0
220
0
230
1
50
360
73
2
44
1
0
ENDBLK
5
51
330
4F
100
AcDbEntity
8
0
100
AcDbBlockEnd
0
BLOCK
5
53
330
52
100
AcDbEntity
8
0
100
AcDbBlockBegin
2
*D25
70
1
10
0
20
0
3
*D25
1

0
SOLID
5
E5
100
AcDbEntity
8
front
6
CONTINUOUS
62
7
370
0
100
AcDbTrace
10
9.7249974937
20
-95.2804522806
30
0
11
7.2249974937
21
-95.6967369384
31
0
12
7.2249974937
22
-94.8641676228
32
0
13
7.2249974937
23
-94.8641676228
33
0
0
LINE
5
E6
100
AcDbEntity
8
front
6
CONTINUOUS
62
7
370
0
100
AcDbLine
10
16.8749974937
20
-95.2804522806
11
0.836108604811
21
-95.2804522806
0
MTEXT
5
E7
100
AcDbEntity
8
front
6
CONTINUOUS
62
7
370
0
100
AcDbMText
10
4.3442712368
20
-93.4054522806
30
0
40
2.5
41
3.88888888889
71
5
72
1
1
7.2
7
standard
210
0
220
0
230
1
50
360
73
2
44
1
0
ENDBLK
5
54
330
52
100
AcDbEntity
8
0
100
AcDbBlockEnd
0
BLOCK
5
56
330
55
100
AcDbEntity
8
0
100
AcDbBlockBegin
2
*D39
70
1
10
0
20
0
3
*D39
1

0
SOLID
5
E8
100
AcDbEntity
8
back
6
CONTINUOUS
62
7
370
0
100
AcDbTrace
10
105.875
20
-75.5
30
0
11
108.375
21
-75.0837153422
31
0
12
108.375
22
-75.9162846578
32
0
13
108.375
23
-75.9162846578
33
0
0
LINE
5
E9
100
AcDbEntity
8
back
6
CONTINUOUS
62
7
370
0
100
AcDbLine
10
104.375
20
-75.5
11
114.208333333
21
-75.5
0
MTEXT
5
EA
100
AcDbEntity
8
back
6
CONTINUOUS
62
7
370
0
100
AcDbMText
10
110.041666667
20
-73.625
30
0
40
2.5
41
3.33333333333
71
5
72
1
1
1.5
7
standard
210
0
220
0
230
1
50
0
73
2
44
1
0
ENDBLK
5
57
330
55
100
AcDbEntity
8
0
100
AcDbBlockEnd
0
BLOCK
5
59
330
58
100
AcDbEntity
8
0
100
AcDbBlockBegin
2
*D48
70
1
10
0
20
0
3
*D48
1

0
LINE
5
EB
100
AcDbEntity
8
back
6
CONTINUOUS
62
7
370
0
100
AcDbLine
10
221.375
20
-79.5
11
221.375
21
-20.5
0
SOLID
5
EC
100
AcDbEntity
8
back
6
CONTINUOUS
62
7
370
0
100
AcDbTrace
10
221.375
20
-79.5
30
0
11
220.958715342
21
-77
31
0
12
221.791284658
22
-77
32
0
13
221.791284658
23
-77
33
0
0
SOLID
5
ED
100
AcDbEntity
8
back
6
CONTINUOUS
62
7
370
0
100
AcDbTrace
10
221.375
20
-20.5
30
0
11
221.791284658
21
-23
31
0
12
220.958715342
22
-23
32
0
13
220.958715342
23
-23
33
0
0
MTEXT
5
EE
100
AcDbEntity
8
back
6
CONTINUOUS
62
7
370
0
100
AcDbMText
10
219.5
20
-50
30
0
40
2.5
41
3.05555555556
71
5
72
1
1
59
7
standard
210
0
220
0
230
1
50
90
73
2
44
1
0
LINE
5
EF
100
AcDbEntity
8
back
6
CONTINUOUS
62
7
370
0
100
AcDbLine
10
206.25
20
-79.5
11
222.625
21
-79.5
0
LINE
5
F0
100
AcDbEntity
8
back
6
CONTINUOUS
62
7
370
0
100
AcDbLine
10
206.25
20
-20.5
11
222.625
21
-20.5
0
ENDBLK
5
5A
330
58
100
AcDbEntity
8
0
100
AcDbBlockEnd
0
BLOCK
5
5C
330
5B
100
AcDbEntity
8
0
100
AcDbBlockBegin
2
*D13
70
1
10
0
20
0
3
*D13
1

0
SOLID
5
F1
100
AcDbEntity
8
front
6
CONTINUOUS
62
7
370
0
100
AcDbTrace
10
237.375
20
-81.25
30
0
11
234.875
21
-81.6662846578
31
0
12
234.875
22
-80.8337153422
32
0
13
234.875
23
-80.8337153422
33
0
0
LINE
5
F2
100
AcDbEntity
8
front
6
CONTINUOUS
62
7
370
0
100
AcDbLine
10
238.875
20
-81.25
11
229.041666667
21
-81.25
0
MTEXT
5
F3
100
AcDbEntity
8
front
6
CONTINUOUS
62
7
370
0
100
AcDbMText
10
233.208333333
20
-79.375
30
0
40
2.5
41
3.33333333333
71
5
72
1
1
1.5
7
standard
210
0
220
0
230
1
50
360
73
2
44
1
0
ENDBLK
5
5D
330
5B
100
AcDbEntity
8
0
100
AcDbBlockEnd
0
BLOCK
5
5F
330
5E
100
AcDbEntity
8
0
100
AcDbBlockBegin
2
*D16
70
1
10
0
20
0
3
*D16
1

0
LINE
5
F4
100
AcDbEntity
8
front
6
CONTINUOUS
62
7
370
0
100
AcDbLine
10
254.968313548
20
-51
11
254.968313548
21
-85
0
SOLID
5
F5
100
AcDbEntity
8
front
6
CONTINUOUS
62
7
370
0
100
AcDbTrace
10
254.968313548
20
-51
30
0
11
255.384598206
21
-53.5
31
0
12
254.55202889
22
-53.5
32
0
13
254.55202889
23
-53.5
33
0
0
SOLID
5
F6
100
AcDbEntity
8
front
6
CONTINUOUS
62
7
370
0
100
AcDbTrace
10
254.968313548
20
-85
30
0
11
254.55202889
21
-82.5
31
0
12
255.384598206
22
-82.5
32
0
13
255.384598206
23
-82.5
33
0
0
MTEXT
5
F7
100
AcDbEntity
8
front
6
CONTINUOUS
62
7
370
0
100
AcDbMText
10
253.093313548
20
-68
30
0
40
2.5
41
3.33333333333
71
5
72
1
1
34
7
standard
210
0
220
0
230
1
50
90
73
2
44
1
0
LINE
5
F8
100
AcDbEntity
8
front
6
CONTINUOUS
62
7
370
0
100
AcDbLine
10
243.25
20
-51
11
256.218313548
21
-51
0
LINE
5
F9
100
AcDbEntity
8
front
6
CONTINUOUS
62
7
370
0
100
AcDbLine
10
243.25
20
-85
11
256.218313548
21
-85
0
ENDBLK
5
60
330
5E
100
AcDbEntity
8
0
100
AcDbBlockEnd
0
BLOCK
5
62
330
61
100
AcDbEntity
8
0
100
AcDbBlockBegin
2
*D14
70
1
10
0
20
0
3
*D14
1

0
LINE
5
FA
100
AcDbEntity
8
front
6
CONTINUOUS
62
7
370
0
100
AcDbLine
10
254.937252535
20
-15
11
254.937252535
21
-49
0
SOLID
5
FB
100
AcDbEntity
8
front
6
CONTINUOUS
62
7
370
0
100
AcDbTrace
10
254.937252535
20
-15
30
0
11
255.353537193
21
-17.5
31
0
12
254.520967877
22
-17.5
32
0
13
254.520967877
23
-17.5
33
0
0
SOLID
5
FC
100
AcDbEntity
8
front
6
CONTINUOUS
62
7
370
0
100
AcDbTrace
10
254.937252535
20
-49
30
0
11
254.520967877
21
-46.5
31
0
12
255.353537193
22
-46.5
32
0
13
255.353537193
23
-46.5
33
0
0
MTEXT
5
FD
100
AcDbEntity
8
front
6
CONTINUOUS
62
7
370
0
100
AcDbMText
10
253.062252535
20
-32
30
0
40
2.5
41
3.33333333333
71
5
72
1
1
34
7
standard
210
0
220
0
230
1
50
90
73
2
44
1
0
LINE
5
FE
100
AcDbEntity
8
front
6
CONTINUOUS
62
7
370
0
100
AcDbLine
10
243.25
20
-15
11
256.187252535
21
-15
0
LINE
5
FF
100
AcDbEntity
8
front
6
CONTINUOUS
62
7
370
0
100
AcDbLine
10
243.25
20
-49
11
256.187252535
21
-49
0
ENDBLK
5
63
330
61
100
AcDbEntity
8
0
100
AcDbBlockEnd
0
BLOCK
5
65
330
64
100
AcDbEntity
8
0
100
AcDbBlockBegin
2
*D41
70
1
10
0
20
0
3
*D41
1

0
LINE
5
100
100
AcDbEntity
8
front
6
CONTINUOUS
62
7
370
0
100
AcDbLine
10
178.976279643
20
-101.660440142
11
174.300267055
21
-97.0786297523
0
SOLID
5
101
100
AcDbEntity
8
front
6
CONTINUOUS
62
7
370
0
100
AcDbTrace
10
178.976279643
20
-101.660440142
30
0
11
176.899269957
21
-100.208089055
31
0
12
177.481964777
22
-99.6134140076
32
0
13
177.481964777
23
-99.6134140076
33
0
0
LINE
5
102
100
AcDbEntity
8
front
6
CONTINUOUS
62
7
370
0
100
AcDbLine
10
174.300267055
20
-97.0786297523
11
156.6496071
21
-97.0786297523
0
ENDBLK
5
66
330
64
100
AcDbEntity
8
0
100
AcDbBlockEnd
0
BLOCK
5
68
330
67
100
AcDbEntity
8
0
100
AcDbBlockBegin
2
*D6
70
1
10
0
20
0
3
*D6
1

0
LINE
5
103
100
AcDbEntity
8
front
6
CONTINUOUS
62
7
370
0
100
AcDbLine
10
0
20
-137.303794563
11
250
21
-137.303794563
0
SOLID
5
104
100
AcDbEntity
8
front
6
CONTINUOUS
62
7
370
0
100
AcDbTrace
10
0
20
-137.303794563
30
0
11
2.5
21
-136.887509905
31
0
12
2.5
22
-137.720079221
32
0
13
2.5
23
-137.720079221
33
0
0
SOLID
5
105
100
AcDbEntity
8
front
6
CONTINUOUS
62
7
370
0
100
AcDbTrace
10
250
20
-137.303794563
30
0
11
247.5
21
-137.720079221
31
0
12
247.5
22
-136.887509905
32
0
13
247.5
23
-136.887509905
33
0
0
MTEXT
5
106
100
AcDbEntity
8
front
6
CONTINUOUS
62
7
370
0
100
AcDbMText
10
125
20
-135.428794563
30
0
40
2.5
41
5
71
5
72
1
1
250
7
standard
210
0
220
0
230
1
50
0
73
2
44
1
0
LINE
5
107
100
AcDbEntity
8
front
6
CONTINUOUS
62
7
370
0
100
AcDbLine
10
-1.1481063742e-16
20
-123.625
11
-2.2962127484e-16
21
-138.553794563
0
LINE
5
108
100
AcDbEntity
8
front
6
CONTINUOUS
62
7
370
0
100
AcDbLine
10
250
20
-123.625
11
250
21
-138.553794563
0
ENDBLK
5
69
330
67
100
AcDbEntity
8
0
100
AcDbBlockEnd
0
BLOCK
5
6B
330
6A
100
AcDbEntity
8
0
100
AcDbBlockBegin
2
*D40
70
1
10
0
20
0
3
*D40
1

0
SOLID
5
109
100
AcDbEntity
8
front
6
CONTINUOUS
62
7
370
0
100
AcDbTrace
10
183.854166667
20
-104
30
0
11
186.354166667
21
-103.583715342
31
0
12
186.354166667
22
-104.416284658
32
0
13
186.354166667
23
-104.416284658
33
0
0
LINE
5
10A
100
AcDbEntity
8
front
6
CONTINUOUS
62
7
370
0
100
AcDbLine
10
180.854166667
20
-104
11
189.965277778
21
-104
0
MTEXT
5
10B
100
AcDbEntity
8
front
6
CONTINUOUS
62
7
370
0
100
AcDbMText
10
186.909722222
20
-102.125
30
0
40
2.5
41
1.11111111111
71
5
72
1
1
3
7
standard
210
0
220
0
230
1
50
0
73
2
44
1
0
ENDBLK
5
6C
330
6A
100
AcDbEntity
8
0
100
AcDbBlockEnd
0
BLOCK
5
6E
330
6D
100
AcDbEntity
8
0
100
AcDbBlockBegin
2
*D11
70
1
10
0
20
0
3
*D11
1

0
SOLID
5
10C
100
AcDbEntity
8
front
6
CONTINUOUS
62
7
370
0
100
AcDbTrace
10
237.375
20
-45.25
30
0
11
234.875
21
-45.6662846578
31
0
12
234.875
22
-44.8337153422
32
0
13
234.875
23
-44.8337153422
33
0
0
LINE
5
10D
100
AcDbEntity
8
front
6
CONTINUOUS
62
7
370
0
100
AcDbLine
10
238.875
20
-45.25
11
229.041666667
21
-45.25
0
MTEXT
5
10E
100
AcDbEntity
8
front
6
CONTINUOUS
62
7
370
0
100
AcDbMText
10
233.208333333
20
-43.375
30
0
40
2.5
41
3.33333333333
71
5
72
1
1
1.5
7
standard
210
0
220
0
230
1
50
360
73
2
44
1
0
ENDBLK
5
6F
330
6D
100
AcDbEntity
8
0
100
AcDbBlockEnd
0
BLOCK
5
71
330
70
100
AcDbEntity
8
0
100
AcDbBlockBegin
2
*D43
70
1
10
0
20
0
3
*D43
1

0
SOLID
5
10F
100
AcDbEntity
8
back
6
CONTINUOUS
62
7
370
0
100
AcDbTrace
10
10
20
-7.5
30
0
11
12.5
21
-7.08371534223
31
0
12
12.5
22
-7.91628465777
32
0
13
12.5
23
-7.91628465777
33
0
0
LINE
5
110
100
AcDbEntity
8
back
6
CONTINUOUS
62
7
370
0
100
AcDbLine
10
7.5
20
-7.5
11
18.8888888889
21
-7.5
0
MTEXT
5
111
100
AcDbEntity
8
back
6
CONTINUOUS
62
7
370
0
100
AcDbMText
10
14.4444444444
20
-5.625
30
0
40
2.5
41
3.88888888889
71
5
72
1
1
2.5
7
standard
210
0
220
0
230
1
50
0
73
2
44
1
0
ENDBLK
5
72
330
70
100
AcDbEntity
8
0
100
AcDbBlockEnd
0
BLOCK
5
74
330
73
100
AcDbEntity
8
0
100
AcDbBlockBegin
2
*D7
70
1
10
0
20
0
3
*D7
1

0
SOLID
5
112
100
AcDbEntity
8
front
6
CONTINUOUS
62
7
370
0
100
AcDbTrace
10
25.725
20
-27.7195477194
30
0
11
23.225
21
-28.1358323772
31
0
12
23.225
22
-27.3032630616
32
0
13
23.225
23
-27.3032630616
33
0
0
LINE
5
113
100
AcDbEntity
8
front
6
CONTINUOUS
62
7
370
0
100
AcDbLine
10
32.875
20
-27.7195477194
11
17.3916666667
21
-27.7195477194
0
MTEXT
5
114
100
AcDbEntity
8
front
6
CONTINUOUS
62
7
370
0
100
AcDbMText
10
20.344273743
20
-25.8445477194
30
0
40
2.5
41
3.33333333333
71
5
72
1
1
7.1
7
standard
210
0
220
0
230
1
50
360
73
2
44
1
0
ENDBLK
5
75
330
73
100
AcDbEntity
8
0
100
AcDbBlockEnd
0
BLOCK
5
77
330
76
100
AcDbEntity
8
0
100
AcDbBlockBegin
2
*D9
70
1
10
0
20
0
3
*D9
1

0
SOLID
5
115
100
AcDbEntity
8
front
6
CONTINUOUS
62
7
370
0
100
AcDbTrace
10
37.2749949875
20
-18.5
30
0
11
34.7749949875
21
-18.9162846578
31
0
12
34.7749949875
22
-18.0837153422
32
0
13
34.7749949875
23
-18.0837153422
33
0
0
LINE
5
116
100
AcDbEntity
8
front
6
CONTINUOUS
62
7
370
0
100
AcDbLine
10
38.8749949875
20
-18.5
11
28.9416616542
21
-18.5
0
MTEXT
5
117
100
AcDbEntity
8
front
6
CONTINUOUS
62
7
370
0
100
AcDbMText
10
33.1083283208
20
-16.625
30
0
40
2.5
41
3.33333333333
71
5
72
1
1
1.6
7
standard
210
0
220
0
230
1
50
360
73
2
44
1
0
ENDBLK
5
78
330
76
100
AcDbEntity
8
0
100
AcDbBlockEnd
0
BLOCK
5
7A
330
79
100
AcDbEntity
8
0
100
AcDbBlockBegin
2
*D36
70
1
10
0
20
0
3
*D36
1

0
SOLID
5
118
100
AcDbEntity
8
back
6
CONTINUOUS
62
7
370
0
100
AcDbTrace
10
105.875
20
-24.5
30
0
11
108.375
21
-24.0837153422
31
0
12
108.375
22
-24.9162846578
32
0
13
108.375
23
-24.9162846578
33
0
0
LINE
5
119
100
AcDbEntity
8
back
6
CONTINUOUS
62
7
370
0
100
AcDbLine
10
104.375
20
-24.5
11
114.208333333
21
-24.5
0
MTEXT
5
11A
100
AcDbEntity
8
back
6
CONTINUOUS
62
7
370
0
100
AcDbMText
10
110.041666667
20
-22.625
30
0
40
2.5
41
3.33333333333
71
5
72
1
1
1.5
7
standard
210
0
220
0
230
1
50
0
73
2
44
1
0
ENDBLK
5
7B
330
79
100
AcDbEntity
8
0
100
AcDbBlockEnd
0
BLOCK
5
7D
330
7C
100
AcDbEntity
8
0
100
AcDbBlockBegin
2
*D30
70
1
10
0
20
0
3
*D30
1

0
SOLID
5
11B
100
AcDbEntity
8
front
6
CONTINUOUS
62
7
370
0
100
AcDbTrace
10
47.6499924812
20
-86.0609045612
30
0
11
45.1499924812
21
-86.477189219
31
0
12
45.1499924812
22
-85.6446199034
32
0
13
45.1499924812
23
-85.6446199034
33
0
0
LINE
5
11C
100
AcDbEntity
8
front
6
CONTINUOUS
62
7
370
0
100
AcDbLine
10
49.2499924812
20
-86.0609045612
11
39.3166591479
21
-86.0609045612
0
MTEXT
5
11D
100
AcDbEntity
8
front
6
CONTINUOUS
62
7
370
0
100
AcDbMText
10
43.4833258145
20
-84.1859045612
30
0
40
2.5
41
3.33333333333
71
5
72
1
1
1.6
7
standard
210
0
220
0
230
1
50
360
73
2
44
1
0
ENDBLK
5
7E
330
7C
100
AcDbEntity
8
0
100
AcDbBlockEnd
0
BLOCK
5
80
330
7F
100
AcDbEntity
8
0
100
AcDbBlockBegin
2
*D10
70
1
10
0
20
0
3
*D10
1

0
SOLID
5
11E
100
AcDbEntity
8
front
6
CONTINUOUS
62
7
370
0
100
AcDbTrace
10
237.375
20
-18.75
30
0
11
234.875
21
-19.1662846578
31
0
12
234.875
22
-18.3337153422
32
0
13
234.875
23
-18.3337153422
33
0
0
LINE
5
11F
100
AcDbEntity
8
front
6
CONTINUOUS
62
7
370
0
100
AcDbLine
10
238.875
20
-18.75
11
229.041666667
21
-18.75
0
MTEXT
5
120
100
AcDbEntity
8
front
6
CONTINUOUS
62
7
370
0
100
AcDbMText
10
233.208333333
20
-16.875
30
0
40
2.5
41
3.33333333333
71
5
72
1
1
1.5
7
standard
210
0
220
0
230
1
50
360
73
2
44
1
0
ENDBLK
5
81
330
7F
100
AcDbEntity
8
0
100
AcDbBlockEnd
0
BLOCK
5
83
330
82
100
AcDbEntity
8
0
100
AcDbBlockBegin
2
*D44
70
1
10
0
20
0
3
*D44
1

0
SOLID
5
121
100
AcDbEntity
8
back
6
CONTINUOUS
62
7
370
0
100
AcDbTrace
10
240
20
-7.5
30
0
11
237.5
21
-7.91628465777
31
0
12
237.5
22
-7.08371534223
32
0
13
237.5
23
-7.08371534223
33
0
0
LINE
5
122
100
AcDbEntity
8
back
6
CONTINUOUS
62
7
370
0
100
AcDbLine
10
242.5
20
-7.5
11
231.111111111
21
-7.5
0
MTEXT
5
123
100
AcDbEntity
8
back
6
CONTINUOUS
62
7
370
0
100
AcDbMText
10
235.555555556
20
-5.625
30
0
40
2.5
41
3.88888888889
71
5
72
1
1
2.5
7
standard
210
0
220
0
230
1
50
360
73
2
44
1
0
ENDBLK
5
84
330
82
100
AcDbEntity
8
0
100
AcDbBlockEnd
0
BLOCK
5
86
330
85
100
AcDbEntity
8
0
100
AcDbBlockBegin
2
*D23
70
1
10
0
20
0
3
*D23
1

0
SOLID
5
124
100
AcDbEntity
8
front
6
CONTINUOUS
62
7
370
0
100
AcDbTrace
10
21.2749924812
20
-52.2804522806
30
0
11
18.7749924812
21
-52.6967369384
31
0
12
18.7749924812
22
-51.8641676228
32
0
13
18.7749924812
23
-51.8641676228
33
0
0
LINE
5
125
100
AcDbEntity
8
front
6
CONTINUOUS
62
7
370
0
100
AcDbLine
10
22.8749924812
20
-52.2804522806
11
12.9416591479
21
-52.2804522806
0
MTEXT
5
126
100
AcDbEntity
8
front
6
CONTINUOUS
62
7
370
0
100
AcDbMText
10
17.1083258145
20
-50.4054522806
30
0
40
2.5
41
3.33333333333
71
5
72
1
1
1.6
7
standard
210
0
220
0
230
1
50
360
73
2
44
1
0
ENDBLK
5
87
330
85
100
AcDbEntity
8
0
100
AcDbBlockEnd
0
BLOCK
5
89
330
88
100
AcDbEntity
8
0
100
AcDbBlockBegin
2
*D29
70
1
10
0
20
0
3
*D29
1

0
SOLID
5
127
100
AcDbEntity
8
front
6
CONTINUOUS
62
7
370
0
100
AcDbTrace
10
38.8500025063
20
-104.5
30
0
11
41.3500025063
21
-104.083715342
31
0
12
41.3500025063
22
-104.916284658
32
0
13
41.3500025063
23
-104.916284658
33
0
0
LINE
5
128
100
AcDbEntity
8
front
6
CONTINUOUS
62
7
370
0
100
AcDbLine
10
37.2500025063
20
-104.5
11
47.1833358396
21
-104.5
0
MTEXT
5
129
100
AcDbEntity
8
front
6
CONTINUOUS
62
7
370
0
100
AcDbMText
10
43.016669173
20
-102.625
30
0
40
2.5
41
3.33333333333
71
5
72
1
1
1.6
7
standard
210
0
220
0
230
1
50
0
73
2
44
1
0
ENDBLK
5
8A
330
88
100
AcDbEntity
8
0
100
AcDbBlockEnd
0
BLOCK
5
8C
330
8B
100
AcDbEntity
8
0
100
AcDbBlockBegin
2
*D18
70
1
10
0
20
0
3
*D18
1

0
SOLID
5
12A
100
AcDbEntity
8
front
6
CONTINUOUS
62
7
370
0
100
AcDbTrace
10
65.375
20
-18.75
30
0
11
67.875
21
-18.3337153422
31
0
12
67.875
22
-19.1662846578
32
0
13
67.875
23
-19.1662846578
33
0
0
LINE
5
12B
100
AcDbEntity
8
front
6
CONTINUOUS
62
7
370
0
100
AcDbLine
10
63.875
20
-18.75
11
73.7083333333
21
-18.75
0
MTEXT
5
12C
100
AcDbEntity
8
front
6
CONTINUOUS
62
7
370
0
100
AcDbMText
10
69.5416666667
20
-16.875
30
0
40
2.5
41
3.33333333333
71
5
72
1
1
1.5
7
standard
210
0
220
0
230
1
50
0
73
2
44
1
0
ENDBLK
5
8D
330
8B
100
AcDbEntity
8
0
100
AcDbBlockEnd
0
BLOCK
5
8F
330
8E
100
AcDbEntity
8
0
100
AcDbBlockBegin
2
*D2
70
1
10
0
20
0
3
*D2
1

0
SOLID
5
12D
100
AcDbEntity
8
front
6
CONTINUOUS
62
7
370
0
100
AcDbTrace
10
240
20
-7.5
30
0
11
237.5
21
-7.91628465777
31
0
12
237.5
22
-7.08371534223
32
0
13
237.5
23
-7.08371534223
33
0
0
LINE
5
12E
100
AcDbEntity
8
front
6
CONTINUOUS
62
7
370
0
100
AcDbLine
10
242.5
20
-7.5
11
231.111111111
21
-7.5
0
MTEXT
5
12F
100
AcDbEntity
8
front
6
CONTINUOUS
62
7
370
0
100
AcDbMText
10
235.555555556
20
-5.625
30
0
40
2.5
41
3.88888888889
71
5
72
1
1
2.5
7
standard
210
0
220
0
230
1
50
360
73
2
44
1
0
ENDBLK
5
90
330
8E
100
AcDbEntity
8
0
100
AcDbBlockEnd
0
BLOCK
5
92
330
91
100
AcDbEntity
8
0
100
AcDbBlockBegin
2
*D47
70
1
10
0
20
0
3
*D47
1

0
LINE
5
130
100
AcDbEntity
8
back
6
CONTINUOUS
62
7
370
0
100
AcDbLine
10
97.125
20
-92.4014380099
11
205.625
21
-92.4014380099
0
SOLID
5
131
100
AcDbEntity
8
back
6
CONTINUOUS
62
7
370
0
100
AcDbTrace
10
97.125
20
-92.4014380099
30
0
11
99.625
21
-91.9851533521
31
0
12
99.625
22
-92.8177226677
32
0
13
99.625
23
-92.8177226677
33
0
0
SOLID
5
132
100
AcDbEntity
8
back
6
CONTINUOUS
62
7
370
0
100
AcDbTrace
10
205.625
20
-92.4014380099
30
0
11
203.125
21
-92.8177226677
31
0
12
203.125
22
-91.9851533521
32
0
13
203.125
23
-91.9851533521
33
0
0
MTEXT
5
133
100
AcDbEntity
8
back
6
CONTINUOUS
62
7
370
0
100
AcDbMText
10
151.375
20
-90.5264380099
30
0
40
2.5
41
7.22222222222
71
5
72
1
1
108.5
7
standard
210
0
220
0
230
1
50
0
73
2
44
1
0
LINE
5
134
100
AcDbEntity
8
back
6
CONTINUOUS
62
7
370
0
100
AcDbLine
10
97.125
20
-80.125
11
97.125
21
-93.6514380099
0
LINE
5
135
100
AcDbEntity
8
back
6
CONTINUOUS
62
7
370
0
100
AcDbLine
10
205.625
20
-80.125
11
205.625
21
-93.6514380099
0
ENDBLK
5
93
330
91
100
AcDbEntity
8
0
100
AcDbBlockEnd
0
BLOCK
5
95
330
94
100
AcDbEntity
8
0
100
AcDbBlockBegin
2
*D32
70
1
10
0
20
0
3
*D32
1

0
SOLID
5
136
100
AcDbEntity
8
front
6
CONTINUOUS
62
7
370
0
100
AcDbTrace
10
36.4333308271
20
-61.5
30
0
11
33.9333308271
21
-61.9162846578
31
0
12
33.9333308271
22
-61.0837153422
32
0
13
33.9333308271
23
-61.0837153422
33
0
0
LINE
5
137
100
AcDbEntity
8
front
6
CONTINUOUS
62
7
370
0
100
AcDbLine
10
43.5833308271
20
-61.5
11
27.5444419382
21
-61.5
0
MTEXT
5
138
100
AcDbEntity
8
front
6
CONTINUOUS
62
7
370
0
100
AcDbMText
10
31.0526045701
20
-59.625
30
0
40
2.5
41
3.88888888889
71
5
72
1
1
7.2
7
standard
210
0
220
0
230
1
50
360
73
2
44
1
0
ENDBLK
5
96
330
94
100
AcDbEntity
8
0
100
AcDbBlockEnd
0
BLOCK
5
98
330
97
100
AcDbEntity
8
0
100
AcDbBlockBegin
2
*D33
70
1
10
0
20
0
3
*D33
1

0
SOLID
5
139
100
AcDbEntity
8
front
6
CONTINUOUS
62
7
370
0
100
AcDbTrace
10
47.9833258145
20
-52.2804522806
30
0
11
45.4833258145
21
-52.6967369384
31
0
12
45.4833258145
22
-51.8641676228
32
0
13
45.4833258145
23
-51.8641676228
33
0
0
LINE
5
13A
100
AcDbEntity
8
front
6
CONTINUOUS
62
7
370
0
100
AcDbLine
10
49.5833258145
20
-52.2804522806
11
39.6499924812
21
-52.2804522806
0
MTEXT
5
13B
100
AcDbEntity
8
front
6
CONTINUOUS
62
7
370
0
100
AcDbMText
10
43.8166591478
20
-50.4054522806
30
0
40
2.5
41
3.33333333333
71
5
72
1
1
1.6
7
standard
210
0
220
0
230
1
50
360
73
2
44
1
0
ENDBLK
5
99
330
97
100
AcDbEntity
8
0
100
AcDbBlockEnd
0
BLOCK
5
9B
330
9A
100
AcDbEntity
8
0
100
AcDbBlockBegin
2
*D8
70
1
10
0
20
0
3
*D8
1

0
SOLID
5
13C
100
AcDbEntity
8
front
6
CONTINUOUS
62
7
370
0
100
AcDbTrace
10
28.4750050125
20
-36.9390954388
30
0
11
30.9750050125
21
-36.522810781
31
0
12
30.9750050125
22
-37.3553800966
32
0
13
30.9750050125
23
-37.3553800966
33
0
0
LINE
5
13D
100
AcDbEntity
8
front
6
CONTINUOUS
62
7
370
0
100
AcDbLine
10
26.8750050125
20
-36.9390954388
11
36.8083383458
21
-36.9390954388
0
MTEXT
5
13E
100
AcDbEntity
8
front
6
CONTINUOUS
62
7
370
0
100
AcDbMText
10
32.6416716792
20
-35.0640954388
30
0
40
2.5
41
3.33333333333
71
5
72
1
1
1.6
7
standard
210
0
220
0
230
1
50
0
73
2
44
1
0
ENDBLK
5
9C
330
9A
100
AcDbEntity
8
0
100
AcDbBlockEnd
0
BLOCK
5
9E
330
9D
100
AcDbEntity
8
0
100
AcDbBlockBegin
2
*D26
70
1
10
0
20
0
3
*D26
1

0
SOLID
5
13F
100
AcDbEntity
8
front
6
CONTINUOUS
62
7
370
0
100
AcDbTrace
10
21.2749924812
20
-86.0609045612
30
0
11
18.7749924812
21
-86.477189219
31
0
12
18.7749924812
22
-85.6446199034
32
0
13
18.7749924812
23
-85.6446199034
33
0
0
LINE
5
140
100
AcDbEntity
8
front
6
CONTINUOUS
62
7
370
0
100
AcDbLine
10
22.8749924812
20
-86.0609045612
11
12.9416591479
21
-86.0609045612
0
MTEXT
5
141
100
AcDbEntity
8
front
6
CONTINUOUS
62
7
370
0
100
AcDbMText
10
17.1083258145
20
-84.1859045612
30
0
40
2.5
41
3.33333333333
71
5
72
1
1
1.6
7
standard
210
0
220
0
230
1
50
360
73
2
44
1
0
ENDBLK
5
9F
330
9D
100
AcDbEntity
8
0
100
AcDbBlockEnd
0
BLOCK
5
A1
330
A0
100
AcDbEntity
8
0
100
AcDbBlockBegin
2
*D34
70
1
10
0
20
0
3
*D34
1

0
SOLID
5
142
100
AcDbEntity
8
front
6
CONTINUOUS
62
7
370
0
100
AcDbTrace
10
39.1833358396
20
-70.7195477194
30
0
11
41.6833358396
21
-70.3032630616
31
0
12
41.6833358396
22
-71.1358323772
32
0
13
41.6833358396
23
-71.1358323772
33
0
0
LINE
5
143
100
AcDbEntity
8
front
6
CONTINUOUS
62
7
370
0
100
AcDbLine
10
37.5833358396
20
-70.7195477194
11
47.5166691729
21
-70.7195477194
0
MTEXT
5
144
100
AcDbEntity
8
front
6
CONTINUOUS
62
7
370
0
100
AcDbMText
10
43.3500025063
20
-68.8445477194
30
0
40
2.5
41
3.33333333333
71
5
72
1
1
1.6
7
standard
210
0
220
0
230
1
50
0
73
2
44
1
0
ENDBLK
5
A2
330
A0
100
AcDbEntity
8
0
100
AcDbBlockEnd
0
BLOCK
5
A4
330
A3
100
AcDbEntity
8
0
100
AcDbBlockBegin
2
*D27
70
1
10
0
20
0
3
*D27
1

0
SOLID
5
145
100
AcDbEntity
8
front
6
CONTINUOUS
62
7
370
0
100
AcDbTrace
10
12.4750025063
20
-104.5
30
0
11
14.9750025063
21
-104.083715342
31
0
12
14.9750025063
22
-104.916284658
32
0
13
14.9750025063
23
-104.916284658
33
0
0
LINE
5
146
100
AcDbEntity
8
front
6
CONTINUOUS
62
7
370
0
100
AcDbLine
10
10.8750025063
20
-104.5
11
20.8083358396
21
-104.5
0
MTEXT
5
147
100
AcDbEntity
8
front
6
CONTINUOUS
62
7
370
0
100
AcDbMText
10
16.641669173
20
-102.625
30
0
40
2.5
41
3.33333333333
71
5
72
1
1
1.6
7
standard
210
0
220
0
230
1
50
0
73
2
44
1
0
ENDBLK
5
A5
330
A3
100
AcDbEntity
8
0
100
AcDbBlockEnd
0
BLOCK
5
A7
330
A6
100
AcDbEntity
8
0
100
AcDbBlockBegin
2
*D22
70
1
10
0
20
0
3
*D22
1

0
SOLID
5
148
100
AcDbEntity
8
front
6
CONTINUOUS
62
7
370
0
100
AcDbTrace
10
9.7249974937
20
-61.5
30
0
11
7.2249974937
21
-61.9162846578
31
0
12
7.2249974937
22
-61.0837153422
32
0
13
7.2249974937
23
-61.0837153422
33
0
0
LINE
5
149
100
AcDbEntity
8
front
6
CONTINUOUS
62
7
370
0
100
AcDbLine
10
16.8749974937
20
-61.5
11
0.836108604811
21
-61.5
0
MTEXT
5
14A
100
AcDbEntity
8
front
6
CONTINUOUS
62
7
370
0
100
AcDbMText
10
4.3442712368
20
-59.625
30
0
40
2.5
41
3.88888888889
71
5
72
1
1
7.2
7
standard
210
0
220
0
230
1
50
360
73
2
44
1
0
ENDBLK
5
A8
330
A6
100
AcDbEntity
8
0
100
AcDbBlockEnd
0
BLOCK
5
AA
330
A9
100
AcDbEntity
8
0
100
AcDbBlockBegin
2
*D21
70
1
10
0
20
0
3
*D21
1

0
SOLID
5
14B
100
AcDbEntity
8
front
6
CONTINUOUS
62
7
370
0
100
AcDbTrace
10
65.375
20
-81.25
30
0
11
67.875
21
-80.8337153422
31
0
12
67.875
22
-81.6662846578
32
0
13
67.875
23
-81.6662846578
33
0
0
LINE
5
14C
100
AcDbEntity
8
front
6
CONTINUOUS
62
7
370
0
100
AcDbLine
10
63.875
20
-81.25
11
73.7083333333
21
-81.25
0
MTEXT
5
14D
100
AcDbEntity
8
front
6
CONTINUOUS
62
7
370
0
100
AcDbMText
10
69.5416666667
20
-79.375
30
0
40
2.5
41
3.33333333333
71
5
72
1
1
1.5
7
standard
210
0
220
0
230
1
50
0
73
2
44
1
0
ENDBLK
5
AB
330
A9
100
AcDbEntity
8
0
100
AcDbBlockEnd
0
BLOCK
5
AD
330
AC
100
AcDbEntity
8
0
100
AcDbBlockBegin
2
*D15
70
1
10
0
20
0
3
*D15
1

0
LINE
5
14E
100
AcDbEntity
8
front
6
CONTINUOUS
62
7
370
0
100
AcDbLine
10
254.968313548
20
-44
11
254.968313548
21
-56
0
SOLID
5
14F
100
AcDbEntity
8
front
6
CONTINUOUS
62
7
370
0
100
AcDbTrace
10
254.968313548
20
-49
30
0
11
254.55202889
21
-46.5
31
0
12
255.384598206
22
-46.5
32
0
13
255.384598206
23
-46.5
33
0
0
SOLID
5
150
100
AcDbEntity
8
front
6
CONTINUOUS
62
7
370
0
100
AcDbTrace
10
254.968313548
20
-51
30
0
11
255.384598206
21
-53.5
31
0
12
254.55202889
22
-53.5
32
0
13
254.55202889
23
-53.5
33
0
0
MTEXT
5
151
100
AcDbEntity
8
front
6
CONTINUOUS
62
7
370
0
100
AcDbMText
10
253.093313548
20
-50
30
0
40
2.5
41
1.11111111111
71
5
72
1
1
2
7
standard
210
0
220
0
230
1
50
90
73
2
44
1
0
LINE
5
152
100
AcDbEntity
8
front
6
CONTINUOUS
62
7
370
0
100
AcDbLine
10
243.25
20
-49
11
256.218313548
21
-49
0
LINE
5
153
100
AcDbEntity
8
front
6
CONTINUOUS
62
7
370
0
100
AcDbLine
10
243.25
20
-51
11
256.218313548
21
-51
0
ENDBLK
5
AE
330
AC
100
AcDbEntity
8
0
100
AcDbBlockEnd
0
BLOCK
5
B0
330
AF
100
AcDbEntity
8
0
100
AcDbBlockBegin
2
*D3
70
1
10
0
20
0
3
*D3
1

0
SOLID
5
154
100
AcDbEntity
8
front
6
CONTINUOUS
62
7
370
0
100
AcDbTrace
10
240
20
-115.5
30
0
11
237.5
21
-115.916284658
31
0
12
237.5
22
-115.083715342
32
0
13
237.5
23
-115.083715342
33
0
0
LINE
5
155
100
AcDbEntity
8
front
6
CONTINUOUS
62
7
370
0
100
AcDbLine
10
242.5
20
-115.5
11
231.111111111
21
-115.5
0
MTEXT
5
156
100
AcDbEntity
8
front
6
CONTINUOUS
62
7
370
0
100
AcDbMText
10
235.555555556
20
-113.625
30
0
40
2.5
41
3.88888888889
71
5
72
1
1
2.5
7
standard
210
0
220
0
230
1
50
360
73
2
44
1
0
ENDBLK
5
B1
330
AF
100
AcDbEntity
8
0
100
AcDbBlockEnd
0
BLOCK
5
B3
330
B2
100
AcDbEntity
8
0
100
AcDbBlockBegin
2
*D42
70
1
10
0
20
0
3
*D42
1

0
LINE
5
157
100
AcDbEntity
8
front
6
CONTINUOUS
62
7
370
0
100
AcDbLine
10
115.742610681
20
-97.240058363
11
112.675368339
21
-94.6219075505
0
LINE
5
158
100
AcDbEntity
8
front
6
CONTINUOUS
62
7
370
0
100
AcDbLine
10
112.675368339
20
-94.6219075505
11
71.3973549782
21
-94.6219075505
0
SOLID
5
159
100
AcDbEntity
8
front
6
CONTINUOUS
62
7
370
0
100
AcDbTrace
10
115.742610681
20
-97.240058363
30
0
11
113.570865574
21
-95.9336066388
31
0
12
114.111394424
22
-95.3003608509
32
0
13
114.111394424
23
-95.3003608509
33
0
0
ENDBLK
5
B4
330
B2
100
AcDbEntity
8
0
100
AcDbBlockEnd
0
BLOCK
5
B6
330
B5
100
AcDbEntity
8
0
100
AcDbBlockBegin
2
*D20
70
1
10
0
20
0
3
*D20
1

0
SOLID
5
15A
100
AcDbEntity
8
front
6
CONTINUOUS
62
7
370
0
100
AcDbTrace
10
65.375
20
-54.75
30
0
11
67.875
21
-54.3337153422
31
0
12
67.875
22
-55.1662846578
32
0
13
67.875
23
-55.1662846578
33
0
0
LINE
5
15B
100
AcDbEntity
8
front
6
CONTINUOUS
62
7
370
0
100
AcDbLine
10
63.875
20
-54.75
11
73.7083333333
21
-54.75
0
MTEXT
5
15C
100
AcDbEntity
8
front
6
CONTINUOUS
62
7
370
0
100
AcDbMText
10
69.5416666667
20
-52.875
30
0
40
2.5
41
3.33333333333
71
5
72
1
1
1.5
7
standard
210
0
220
0
230
1
50
0
73
2
44
1
0
ENDBLK
5
B7
330
B5
100
AcDbEntity
8
0
100
AcDbBlockEnd
0
BLOCK
5
B9
330
B8
100
AcDbEntity
8
0
100
AcDbBlockBegin
2
*D31
70
1
10
0
20
0
3
*D31
1

0
LINE
5
15D
100
AcDbEntity
8
front
6
CONTINUOUS
62
7
370
0
100
AcDbLine
10
33.75
20
-113.179649014
11
52.7499949875
21
-113.179649014
0
SOLID
5
15E
100
AcDbEntity
8
front
6
CONTINUOUS
62
7
370
0
100
AcDbTrace
10
33.75
20
-113.179649014
30
0
11
36.25
21
-112.763364356
31
0
12
36.25
22
-113.595933672
32
0
13
36.25
23
-113.595933672
33
0
0
SOLID
5
15F
100
AcDbEntity
8
front
6
CONTINUOUS
62
7
370
0
100
AcDbTrace
10
52.7499949875
20
-113.179649014
30
0
11
50.2499949875
21
-113.595933672
31
0
12
50.2499949875
22
-112.763364356
32
0
13
50.2499949875
23
-112.763364356
33
0
0
MTEXT
5
160
100
AcDbEntity
8
front
6
CONTINUOUS
62
7
370
0
100
AcDbMText
10
43.2499974938
20
-111.304649014
30
0
40
2.5
41
2.5
71
5
72
1
1
19
7
standard
210
0
220
0
230
1
50
0
73
2
44
1
0
LINE
5
161
100
AcDbEntity
8
front
6
CONTINUOUS
62
7
370
0
100
AcDbLine
10
33.75
20
-108.625
11
33.75
21
-114.429649014
0
LINE
5
162
100
AcDbEntity
8
front
6
CONTINUOUS
62
7
370
0
100
AcDbLine
10
52.7499949875
20
-108.625
11
52.7499949875
21
-114.429649014
0
ENDBLK
5
BA
330
B8
100
AcDbEntity
8
0
100
AcDbBlockEnd
0
BLOCK
5
BC
330
BB
100
AcDbEntity
8
0
100
AcDbBlockBegin
2
*D19
70
1
10
0
20
0
3
*D19
1

0
SOLID
5
163
100
AcDbEntity
8
front
6
CONTINUOUS
62
7
370
0
100
AcDbTrace
10
65.375
20
-45.25
30
0
11
67.875
21
-44.8337153422
31
0
12
67.875
22
-45.6662846578
32
0
13
67.875
23
-45.6662846578
33
0
0
LINE
5
164
100
AcDbEntity
8
front
6
CONTINUOUS
62
7
370
0
100
AcDbLine
10
63.875
20
-45.25
11
73.7083333333
21
-45.25
0
MTEXT
5
165
100
AcDbEntity
8
front
6
CONTINUOUS
62
7
370
0
100
AcDbMText
10
69.5416666667
20
-43.375
30
0
40
2.5
41
3.33333333333
71
5
72
1
1
1.5
7
standard
210
0
220
0
230
1
50
0
73
2
44
1
0
ENDBLK
5
BD
330
BB
100
AcDbEntity
8
0
100
AcDbBlockEnd
0
BLOCK
5
BF
330
BE
100
AcDbEntity
8
0
100
AcDbBlockBegin
2
*D24
70
1
10
0
20
0
3
*D24
1

0
SOLID
5
166
100
AcDbEntity
8
front
6
CONTINUOUS
62
7
370
0
100
AcDbTrace
10
12.4750025063
20
-70.7195477194
30
0
11
14.9750025063
21
-70.3032630616
31
0
12
14.9750025063
22
-71.1358323772
32
0
13
14.9750025063
23
-71.1358323772
33
0
0
LINE
5
167
100
AcDbEntity
8
front
6
CONTINUOUS
62
7
370
0
100
AcDbLine
10
10.8750025063
20
-70.7195477194
11
20.8083358396
21
-70.7195477194
0
MTEXT
5
168
100
AcDbEntity
8
front
6
CONTINUOUS
62
7
370
0
100
AcDbMText
10
16.641669173
20
-68.8445477194
30
0
40
2.5
41
3.33333333333
71
5
72
1
1
1.6
7
standard
210
0
220
0
230
1
50
0
73
2
44
1
0
ENDBLK
5
C0
330
BE
100
AcDbEntity
8
0
100
AcDbBlockEnd
0
BLOCK
5
C2
330
C1
100
AcDbEntity
8
0
100
AcDbBlockBegin
2
*D5
70
1
10
0
20
0
3
*D5
1

0
LINE
5
169
100
AcDbEntity
8
front
6
CONTINUOUS
62
7
370
0
100
AcDbLine
10
266.136403856
20
0
11
266.136403856
21
-123
0
SOLID
5
16A
100
AcDbEntity
8
front
6
CONTINUOUS
62
7
370
0
100
AcDbTrace
10
266.136403856
20
0
30
0
11
266.552688514
21
-2.5
31
0
12
265.720119198
22
-2.5
32
0
13
265.720119198
23
-2.5
33
0
0
SOLID
5
16B
100
AcDbEntity
8
front
6
CONTINUOUS
62
7
370
0
100
AcDbTrace
10
266.136403856
20
-123
30
0
11
265.720119198
21
-120.5
31
0
12
266.552688514
22
-120.5
32
0
13
266.552688514
23
-120.5
33
0
0
MTEXT
5
16C
100
AcDbEntity
8
front
6
CONTINUOUS
62
7
370
0
100
AcDbMText
10
264.261403856
20
-61.5
30
0
40
2.5
41
4.44444444444
71
5
72
1
1
123
7
standard
210
0
220
0
230
1
50
90
73
2
44
1
0
LINE
5
16D
100
AcDbEntity
8
front
6
CONTINUOUS
62
7
370
0
100
AcDbLine
10
250.625
20
0
11
267.386403856
21
0
0
LINE
5
16E
100
AcDbEntity
8
front
6
CONTINUOUS
62
7
370
0
100
AcDbLine
10
250.625
20
-123
11
267.386403856
21
-123
0
ENDBLK
5
C3
330
C1
100
AcDbEntity
8
0
100
AcDbBlockEnd
0
BLOCK
5
C5
330
C4
100
AcDbEntity
8
0
100
AcDbBlockBegin
2
*D35
70
1
10
0
20
0
3
*D35
1

0
SOLID
5
16F
100
AcDbEntity
8
front
6
CONTINUOUS
62
7
370
0
100
AcDbTrace
10
112.020833333
20
-104
30
0
11
114.520833333
21
-103.583715342
31
0
12
114.520833333
22
-104.416284658
32
0
13
114.520833333
23
-104.416284658
33
0
0
LINE
5
170
100
AcDbEntity
8
front
6
CONTINUOUS
62
7
370
0
100
AcDbLine
10
120.020833333
20
-104
11
112.020833333
21
-104
0
MTEXT
5
171
100
AcDbEntity
8
front
6
CONTINUOUS
62
7
370
0
100
AcDbMText
10
116.020833333
20
-102.125
30
0
40
2.5
41
1.11111111111
71
5
72
1
1
8
7
standard
210
0
220
0
230
1
50
360
73
2
44
1
0
ENDBLK
5
C6
330
C4
100
AcDbEntity
8
0
100
AcDbBlockEnd
0
BLOCK
5
C8
330
C7
100
AcDbEntity
8
0
100
AcDbBlockBegin
2
*D37
70
1
10
0
20
0
3
*D37
1

0
SOLID
5
172
100
AcDbEntity
8
back
6
CONTINUOUS
62
7
370
0
100
AcDbTrace
10
196.875
20
-24.5
30
0
11
194.375
21
-24.9162846578
31
0
12
194.375
22
-24.0837153422
32
0
13
194.375
23
-24.0837153422
33
0
0
LINE
5
173
100
AcDbEntity
8
back
6
CONTINUOUS
62
7
370
0
100
AcDbLine
10
198.375
20
-24.5
11
188.541666667
21
-24.5
0
MTEXT
5
174
100
AcDbEntity
8
back
6
CONTINUOUS
62
7
370
0
100
AcDbMText
10
192.708333333
20
-22.625
30
0
40
2.5
41
3.33333333333
71
5
72
1
1
1.5
7
standard
210
0
220
0
230
1
50
360
73
2
44
1
0
ENDBLK
5
C9
330
C7
100
AcDbEntity
8
0
100
AcDbBlockEnd
0
BLOCK
5
CB
330
CA
100
AcDbEntity
8
0
100
AcDbBlockBegin
2
*D12
70
1
10
0
20
0
3
*D12
1

0
SOLID
5
175
100
AcDbEntity
8
front
6
CONTINUOUS
62
7
370
0
100
AcDbTrace
10
237.375
20
-54.75
30
0
11
234.875
21
-55.1662846578
31
0
12
234.875
22
-54.3337153422
32
0
13
234.875
23
-54.3337153422
33
0
0
LINE
5
176
100
AcDbEntity
8
front
6
CONTINUOUS
62
7
370
0
100
AcDbLine
10
238.875
20
-54.75
11
229.041666667
21
-54.75
0
MTEXT
5
177
100
AcDbEntity
8
front
6
CONTINUOUS
62
7
370
0
100
AcDbMText
10
233.208333333
20
-52.875
30
0
40
2.5
41
3.33333333333
71
5
72
1
1
1.5
7
standard
210
0
220
0
230
1
50
360
73
2
44
1
0
ENDBLK
5
CC
330
CA
100
AcDbEntity
8
0
100
AcDbBlockEnd
0
BLOCK
5
CE
330
CD
100
AcDbEntity
8
0
100
AcDbBlockBegin
2
*D45
70
1
10
0
20
0
3
*D45
1

0
SOLID
5
178
100
AcDbEntity
8
back
6
CONTINUOUS
62
7
370
0
100
AcDbTrace
10
240
20
-115.5
30
0
11
237.5
21
-115.916284658
31
0
12
237.5
22
-115.083715342
32
0
13
237.5
23
-115.083715342
33
0
0
LINE
5
179
100
AcDbEntity
8
back
6
CONTINUOUS
62
7
370
0
100
AcDbLine
10
242.5
20
-115.5
11
231.111111111
21
-115.5
0
MTEXT
5
17A
100
AcDbEntity
8
back
6
CONTINUOUS
62
7
370
0
100
AcDbMText
10
235.555555556
20
-113.625
30
0
40
2.5
41
3.88888888889
71
5
72
1
1
2.5
7
standard
210
0
220
0
230
1
50
360
73
2
44
1
0
ENDBLK
5
CF
330
CD
100
AcDbEntity
8
0
100
AcDbBlockEnd
0
BLOCK
5
D1
330
D0
100
AcDbEntity
8
0
100
AcDbBlockBegin
2
*D4
70
1
10
0
20
0
3
*D4
1

0
SOLID
5
17B
100
AcDbEntity
8
front
6
CONTINUOUS
62
7
370
0
100
AcDbTrace
10
10
20
-115.5
30
0
11
12.5
21
-115.083715342
31
0
12
12.5
22
-115.916284658
32
0
13
12.5
23
-115.916284658
33
0
0
LINE
5
17C
100
AcDbEntity
8
front
6
CONTINUOUS
62
7
370
0
100
AcDbLine
10
7.5
20
-115.5
11
18.8888888889
21
-115.5
0
MTEXT
5
17D
100
AcDbEntity
8
front
6
CONTINUOUS
62
7
370
0
100
AcDbMText
10
14.4444444444
20
-113.625
30
0
40
2.5
41
3.88888888889
71
5
72
1
1
2.5
7
standard
210
0
220
0
230
1
50
0
73
2
44
1
0
ENDBLK
5
D2
330
D0
100
AcDbEntity
8
0
100
AcDbBlockEnd
0
BLOCK
5
D4
330
D3
100
AcDbEntity
8
0
100
AcDbBlockBegin
2
*D46
70
1
10
0
20
0
3
*D46
1

0
SOLID
5
17E
100
AcDbEntity
8
back
6
CONTINUOUS
62
7
370
0
100
AcDbTrace
10
10
20
-115.5
30
0
11
12.5
21
-115.083715342
31
0
12
12.5
22
-115.916284658
32
0
13
12.5
23
-115.916284658
33
0
0
LINE
5
17F
100
AcDbEntity
8
back
6
CONTINUOUS
62
7
370
0
100
AcDbLine
10
7.5
20
-115.5
11
18.8888888889
21
-115.5
0
MTEXT
5
180
100
AcDbEntity
8
back
6
CONTINUOUS
62
7
370
0
100
AcDbMText
10
14.4444444444
20
-113.625
30
0
40
2.5
41
3.88888888889
71
5
72
1
1
2.5
7
standard
210
0
220
0
230
1
50
0
73
2
44
1
0
ENDBLK
5
D5
330
D3
100
AcDbEntity
8
0
100
AcDbBlockEnd
0
BLOCK
5
D7
330
D6
100
AcDbEntity
8
0
100
AcDbBlockBegin
2
*D1
70
1
10
0
20
0
3
*D1
1

0
SOLID
5
181
100
AcDbEntity
8
front
6
CONTINUOUS
62
7
370
0
100
AcDbTrace
10
10
20
-7.5
30
0
11
12.5
21
-7.08371534223
31
0
12
12.5
22
-7.91628465777
32
0
13
12.5
23
-7.91628465777
33
0
0
LINE
5
182
100
AcDbEntity
8
front
6
CONTINUOUS
62
7
370
0
100
AcDbLine
10
7.5
20
-7.5
11
18.8888888889
21
-7.5
0
MTEXT
5
183
100
AcDbEntity
8
front
6
CONTINUOUS
62
7
370
0
100
AcDbMText
10
14.4444444444
20
-5.625
30
0
40
2.5
41
3.88888888889
71
5
72
1
1
2.5
7
standard
210
0
220
0
230
1
50
0
73
2
44
1
0
ENDBLK
5
D8
330
D6
100
AcDbEntity
8
0
100
AcDbBlockEnd
0
ENDSEC
0
SECTION
2
ENTITIES
0
LINE
5
184
100
AcDbEntity
8
front
6
ByLayer
62
256
370
-1
100
AcDbLine
10
0
20
0
11
250
21
0
0
LINE
5
185
100
AcDbEntity
8
front
6
ByLayer
62
256
370
-1
100
AcDbLine
10
250
20
0
11
250
21
-123
0
LINE
5
186
100
AcDbEntity
8
front
6
ByLayer
62
256
370
-1
100
AcDbLine
10
250
20
-123
11
0
21
-123
0
LINE
5
187
100
AcDbEntity
8
front
6
ByLayer
62
256
370
-1
100
AcDbLine
10
0
20
-123
11
0
21
0
0
LINE
5
188
100
AcDbEntity
8
back
6
ByLayer
62
256
370
-1
100
AcDbLine
10
0
20
0
11
250
21
0
0
LINE
5
189
100
AcDbEntity
8
back
6
ByLayer
62
256
370
-1
100
AcDbLine
10
250
20
0
11
250
21
-123
0
LINE
5
18A
100
AcDbEntity
8
back
6
ByLayer
62
256
370
-1
100
AcDbLine
10
250
20
-123
11
0
21
-123
0
LINE
5
18B
100
AcDbEntity
8
back
6
ByLayer
62
256
370
-1
100
AcDbLine
10
0
20
-123
11
0
21
0
0
LINE
5
18C
100
AcDbEntity
8
hilfslinien
6
ByLayer
62
256
370
-1
100
AcDbLine
10
0
20
-15
11
1
21
-15
0
LINE
5
18D
100
AcDbEntity
8
hilfslinien
6
ByLayer
62
256
370
-1
100
AcDbLine
10
0
20
-108
11
1
21
-108
0
CIRCLE
5
18E
100
AcDbEntity
8
front
6
ByLayer
62
256
370
-1
100
AcDbCircle
10
7.5
20
-115.5
40
2.5
0
CIRCLE
5
18F
100
AcDbEntity
8
front
6
ByLayer
62
256
370
-1
100
AcDbCircle
10
7.5
20
-7.5
40
2.5
0
CIRCLE
5
190
100
AcDbEntity
8
front
6
ByLayer
62
256
370
-1
100
AcDbCircle
10
242.5
20
-7.5
40
2.5
0
CIRCLE
5
191
100
AcDbEntity
8
front
6
ByLayer
62
256
370
-1
100
AcDbCircle
10
242.5
20
-115.5
40
2.5
0
DIMENSION
5
192
100
AcDbEntity
8
front
6
ByLayer
62
256
370
-1
100
AcDbDimension
2
*D1
10
7.5
20
-7.5
30
0
11
14.4444444444
21
-5.625
31
0
70
36
71
5
72
0
3
Standard
53
0
210
0
220
0
230
1
100
AcDbRadialDimension
15
10
25
-7.5
35
0
40
0
0
DIMENSION
5
193
100
AcDbEntity
8
front
6
ByLayer
62
256
370
-1
100
AcDbDimension
2
*D2
10
242.5
20
-7.5
30
0
11
235.555555556
21
-5.625
31
0
70
36
71
5
72
0
3
Standard
53
0
210
0
220
0
230
1
100
AcDbRadialDimension
15
240
25
-7.5
35
0
40
0
0
DIMENSION
5
194
100
AcDbEntity
8
front
6
ByLayer
62
256
370
-1
100
AcDbDimension
2
*D3
10
242.5
20
-115.5
30
0
11
235.555555556
21
-113.625
31
0
70
36
71
5
72
0
3
Standard
53
0
210
0
220
0
230
1
100
AcDbRadialDimension
15
240
25
-115.5
35
0
40
0
0
DIMENSION
5
195
100
AcDbEntity
8
front
6
ByLayer
62
256
370
-1
100
AcDbDimension
2
*D4
10
7.5
20
-115.5
30
0
11
14.4444444444
21
-113.625
31
0
70
36
71
5
72
0
3
Standard
53
0
210
0
220
0
230
1
100
AcDbRadialDimension
15
10
25
-115.5
35
0
40
0
0
DIMENSION
5
196
100
AcDbEntity
8
front
6
ByLayer
62
256
370
-1
100
AcDbDimension
2
*D5
10
266.136403856
20
-123
30
0
11
264.261403856
21
-61.5
31
0
70
32
71
5
72
0
3
Standard
53
0
210
0
220
0
230
1
100
AcDbAlignedDimension
13
250
23
0
33
0
14
250
24
-123
34
0
50
90
100
AcDbRotatedDimension
0
DIMENSION
5
197
100
AcDbEntity
8
front
6
ByLayer
62
256
370
-1
100
AcDbDimension
2
*D6
10
250
20
-137.303794563
30
0
11
125
21
-135.428794563
31
0
70
32
71
5
72
0
3
Standard
53
0
210
0
220
0
230
1
100
AcDbAlignedDimension
13
-0
23
-123
33
0
14
250
24
-123
34
0
100
AcDbRotatedDimension
0
CIRCLE
5
198
100
AcDbEntity
8
front
6
ByLayer
62
256
370
-1
100
AcDbCircle
10
32.875
20
-27.7195477194
40
7.15
0
CIRCLE
5
199
100
AcDbEntity
8
front
6
ByLayer
62
256
370
-1
100
AcDbCircle
10
38.8749949875
20
-18.5
40
1.6
0
CIRCLE
5
19A
100
AcDbEntity
8
front
6
ByLayer
62
256
370
-1
100
AcDbCircle
10
26.8750050125
20
-36.9390954388
40
1.6
0
LINE
5
19B
100
AcDbEntity
8
front
6
ByLayer
62
256
370
-1
100
AcDbLine
10
23.3750050125
20
-36.9390973417
11
23.375
21
-27.7195528844
0
LINE
5
19C
100
AcDbEntity
8
front
6
ByLayer
62
256
370
-1
100
AcDbLine
10
42.3749949875
20
-18.4999980971
11
42.375
21
-27.7195425544
0
ARC
5
19D
100
AcDbEntity
8
front
6
ByLayer
62
256
370
-1
100
AcDbCircle
10
26.8750050125
20
-36.9390954388
40
3.5
100
AcDbArc
50
180.00001502
51
293.888580256
0
ARC
5
19E
100
AcDbEntity
8
front
6
ByLayer
62
256
370
-1
100
AcDbCircle
10
32.875
20
-27.7195477194
40
9.5
100
AcDbArc
50
113.888565418
51
180.000024732
0
ARC
5
19F
100
AcDbEntity
8
front
6
ByLayer
62
256
370
-1
100
AcDbCircle
10
32.875
20
-27.7195477194
40
9.5
100
AcDbArc
50
293.888573702
51
3.60033740748e-05
0
ARC
5
1A0
100
AcDbEntity
8
front
6
ByLayer
62
256
370
-1
100
AcDbCircle
10
38.8749949875
20
-18.5
40
3.5
100
AcDbArc
50
1.25240690496e-05
51
113.888555678
0
LINE
5
1A1
100
AcDbEntity
8
front
6
ByLayer
62
256
370
-1
100
AcDbLine
10
38.875
20
-15
11
38.8749949875
21
-15
0
LINE
5
1A2
100
AcDbEntity
8
front
6
ByLayer
62
256
370
-1
100
AcDbLine
10
38.875
20
-15
11
38.8749949875
21
-15
0
LINE
5
1A3
100
AcDbEntity
8
front
6
ByLayer
62
256
370
-1
100
AcDbLine
10
38.875
20
-15
11
38.8749949875
21
-15
0
LINE
5
1A4
100
AcDbEntity
8
front
6
ByLayer
62
256
370
-1
100
AcDbLine
10
38.875
20
-15
11
38.8749949875
21
-15
0
LINE
5
1A5
100
AcDbEntity
8
front
6
ByLayer
62
256
370
-1
100
AcDbLine
10
38.875
20
-16.9
11
38.8749949875
21
-16.9
0
LINE
5
1A6
100
AcDbEntity
8
front
6
ByLayer
62
256
370
-1
100
AcDbLine
10
38.875
20
-15
11
38.8749949875
21
-15
0
LINE
5
1A7
100
AcDbEntity
8
front
6
ByLayer
62
256
370
-1
100
AcDbLine
10
38.875
20
-15
11
38.8749949875
21
-15
0
LINE
5
1A8
100
AcDbEntity
8
front
6
ByLayer
62
256
370
-1
100
AcDbLine
10
38.875
20
-15
11
38.8749949875
21
-15
0
LINE
5
1A9
100
AcDbEntity
8
front
6
ByLayer
62
256
370
-1
100
AcDbLine
10
38.875
20
-15
11
38.8749949875
21
-15
0
LINE
5
1AA
100
AcDbEntity
8
front
6
ByLayer
62
256
370
-1
100
AcDbLine
10
23.3750025063
20
-15
11
42.3749974937
21
-15
0
LINE
5
1AB
100
AcDbEntity
8
front
6
ByLayer
62
256
370
-1
100
AcDbLine
10
42.3749974937
20
-40.4390954388
11
42.3749974937
21
-15
0
LINE
5
1AC
100
AcDbEntity
8
front
6
ByLayer
62
256
370
-1
100
AcDbLine
10
23.3750025063
20
-40.4390954388
11
23.3750025063
21
-15
0
LINE
5
1AD
100
AcDbEntity
8
front
6
ByLayer
62
256
370
-1
100
AcDbLine
10
23.3750025063
20
-40.4390954388
11
42.3749974937
21
-40.4390954388
0
DIMENSION
5
1AE
100
AcDbEntity
8
front
6
ByLayer
62
256
370
-1
100
AcDbDimension
2
*D7
10
32.875
20
-27.7195477194
30
0
11
20.344273743
21
-25.8445477194
31
0
70
36
71
5
72
0
3
Standard
53
0
210
0
220
0
230
1
100
AcDbRadialDimension
15
25.725
25
-27.7195477194
35
0
40
0
0
DIMENSION
5
1AF
100
AcDbEntity
8
front
6
ByLayer
62
256
370
-1
100
AcDbDimension
2
*D8
10
26.8750050125
20
-36.9390954388
30
0
11
32.6416716792
21
-35.0640954388
31
0
70
36
71
5
3
Standard
53
0
210
0
220
0
230
1
100
AcDbRadialDimension
15
28.4750050125
25
-36.9390954388
35
0
40
0
0
DIMENSION
5
1B0
100
AcDbEntity
8
front
6
ByLayer
62
256
370
-1
100
AcDbDimension
2
*D9
10
38.8749949875
20
-18.5
30
0
11
33.1083283208
21
-16.625
31
0
70
36
71
5
3
Standard
53
0
210
0
220
0
230
1
100
AcDbRadialDimension
15
37.2749949875
25
-18.5
35
0
40
0
0
CIRCLE
5
1B1
100
AcDbEntity
8
front
6
ByLayer
62
256
370
-1
100
AcDbCircle
10
153.25
20
-104
40
0
0
CIRCLE
5
1B2
100
AcDbEntity
8
front
6
ByLayer
62
256
370
-1
100
AcDbCircle
10
153.25
20
-104
40
0
0
CIRCLE
5
1B3
100
AcDbEntity
8
front
6
ByLayer
62
256
370
-1
100
AcDbCircle
10
153.25
20
-104
40
0
0
CIRCLE
5
1B4
100
AcDbEntity
8
front
6
ByLayer
62
256
370
-1
100
AcDbCircle
10
153.250001907
20
-104.000000414
40
0
0
LINE
5
1B5
100
AcDbEntity
8
front
6
ByLayer
62
256
370
-1
100
AcDbLine
10
29.0278883596
20
-19.0333671994
11
37.4576386114
21
-15.2998279885
0
LINE
5
1B6
100
AcDbEntity
8
front
6
ByLayer
62
256
370
-1
100
AcDbLine
10
36.7221128963
20
-36.4057276832
11
28.2923627614
21
-40.1392668423
0
LINE
5
1B7
100
AcDbEntity
8
front
6
ByLayer
62
256
370
-1
100
AcDbLine
10
242.625
20
-15
11
242.625
21
-49
0
CIRCLE
5
1B8
100
AcDbEntity
8
front
6
ByLayer
62
256
370
-1
100
AcDbCircle
10
238.875
20
-45.25
40
1.5
0
CIRCLE
5
1B9
100
AcDbEntity
8
front
6
ByLayer
62
256
370
-1
100
AcDbCircle
10
238.875
20
-18.75
40
1.5
0
DIMENSION
5
1BA
100
AcDbEntity
8
front
6
ByLayer
62
256
370
-1
100
AcDbDimension
2
*D10
10
238.875
20
-18.75
30
0
11
233.208333333
21
-16.875
31
0
70
36
71
5
72
0
3
Standard
53
0
210
0
220
0
230
1
100
AcDbRadialDimension
15
237.375
25
-18.75
35
0
40
0
0
DIMENSION
5
1BB
100
AcDbEntity
8
front
6
ByLayer
62
256
370
-1
100
AcDbDimension
2
*D11
10
238.875
20
-45.25
30
0
11
233.208333333
21
-43.375
31
0
70
36
71
5
72
0
3
Standard
53
0
210
0
220
0
230
1
100
AcDbRadialDimension
15
237.375
25
-45.25
35
0
40
0
0
LINE
5
1BC
100
AcDbEntity
8
front
6
ByLayer
62
256
370
-1
100
AcDbLine
10
242.625
20
-51
11
242.625
21
-85
0
CIRCLE
5
1BD
100
AcDbEntity
8
front
6
ByLayer
62
256
370
-1
100
AcDbCircle
10
238.875
20
-81.25
40
1.5
0
CIRCLE
5
1BE
100
AcDbEntity
8
front
6
ByLayer
62
256
370
-1
100
AcDbCircle
10
238.875
20
-54.75
40
1.5
0
DIMENSION
5
1BF
100
AcDbEntity
8
front
6
ByLayer
62
256
370
-1
100
AcDbDimension
2
*D12
10
238.875
20
-54.75
30
0
11
233.208333333
21
-52.875
31
0
70
36
71
5
72
0
3
Standard
53
0
210
0
220
0
230
1
100
AcDbRadialDimension
15
237.375
25
-54.75
35
0
40
0
0
DIMENSION
5
1C0
100
AcDbEntity
8
front
6
ByLayer
62
256
370
-1
100
AcDbDimension
2
*D13
10
238.875
20
-81.25
30
0
11
233.208333333
21
-79.375
31
0
70
36
71
5
72
0
3
Standard
53
0
210
0
220
0
230
1
100
AcDbRadialDimension
15
237.375
25
-81.25
35
0
40
0
0
DIMENSION
5
1C1
100
AcDbEntity
8
front
6
ByLayer
62
256
370
-1
100
AcDbDimension
2
*D14
10
254.937252535
20
-49
30
0
11
253.062252535
21
-32
31
0
70
32
71
5
72
0
3
Standard
53
0
210
0
220
0
230
1
100
AcDbAlignedDimension
13
242.625
23
-15
33
0
14
242.625
24
-49
34
0
50
90
100
AcDbRotatedDimension
0
DIMENSION
5
1C2
100
AcDbEntity
8
front
6
ByLayer
62
256
370
-1
100
AcDbDimension
2
*D15
10
254.968313548
20
-51
30
0
11
253.093313548
21
-50
31
0
70
32
71
5
72
0
3
Standard
53
0
210
0
220
0
230
1
100
AcDbAlignedDimension
13
242.625
23
-49
33
0
14
242.625
24
-51
34
0
50
90
100
AcDbRotatedDimension
0
DIMENSION
5
1C3
100
AcDbEntity
8
front
6
ByLayer
62
256
370
-1
100
AcDbDimension
2
*D16
10
254.968313548
20
-85
30
0
11
253.093313548
21
-68
31
0
70
32
71
5
72
0
3
Standard
53
0
210
0
220
0
230
1
100
AcDbAlignedDimension
13
242.625
23
-51
33
0
14
242.625
24
-85
34
0
50
90
100
AcDbRotatedDimension
0
DIMENSION
5
1C4
100
AcDbEntity
8
front
6
ByLayer
62
256
370
-1
100
AcDbDimension
2
*D17
10
242.625
20
-12.1081474773
30
0
11
155.125
21
-10.2331474773
31
0
70
32
71
5
72
0
3
Standard
53
0
210
0
220
0
230
1
100
AcDbAlignedDimension
13
67.625
23
-15
33
0
14
242.625
24
-15
34
0
100
AcDbRotatedDimension
0
MTEXT
5
1C5
100
AcDbEntity
8
front
6
ByLayer
62
256
370
-1
100
AcDbMText
10
155.125
20
-32
30
0
40
10
41
62.7222222222
71
5
72
1
1
LCD 2*40
7
standard
210
0
220
0
230
1
50
0
73
2
44
1
0
MTEXT
5
1C6
100
AcDbEntity
8
front
6
ByLayer
62
256
370
-1
100
AcDbMText
10
155.125
20
-68
30
0
40
10
41
62.7222222222
71
5
72
1
1
LCD 2*40
7
standard
210
0
220
0
230
1
50
0
73
2
44
1
0
LINE
5
1C7
100
AcDbEntity
8
front
6
ByLayer
62
256
370
-1
100
AcDbLine
10
242.625
20
-85
11
60.125
21
-85
0
LINE
5
1C8
100
AcDbEntity
8
front
6
ByLayer
62
256
370
-1
100
AcDbLine
10
242.625
20
-49
11
60.125
21
-49
0
LINE
5
1C9
100
AcDbEntity
8
front
6
ByLayer
62
256
370
-1
100
AcDbLine
10
60.125
20
-51
11
242.625
21
-51
0
LINE
5
1CA
100
AcDbEntity
8
front
6
ByLayer
62
256
370
-1
100
AcDbLine
10
60.125
20
-49
11
60.125
21
-15
0
LINE
5
1CB
100
AcDbEntity
8
front
6
ByLayer
62
256
370
-1
100
AcDbLine
10
60.125
20
-85
11
60.125
21
-51
0
LINE
5
1CC
100
AcDbEntity
8
front
6
ByLayer
62
256
370
-1
100
AcDbLine
10
242.625
20
-15
11
60.125
21
-15
0
CIRCLE
5
1CD
100
AcDbEntity
8
front
6
ByLayer
62
256
370
-1
100
AcDbCircle
10
63.875
20
-18.75
40
1.5
0
CIRCLE
5
1CE
100
AcDbEntity
8
front
6
ByLayer
62
256
370
-1
100
AcDbCircle
10
63.875
20
-18.75
40
1.5
0
CIRCLE
5
1CF
100
AcDbEntity
8
front
6
ByLayer
62
256
370
-1
100
AcDbCircle
10
63.875
20
-45.25
40
1.5
0
DIMENSION
5
1D0
100
AcDbEntity
8
front
6
ByLayer
62
256
370
-1
100
AcDbDimension
2
*D18
10
63.875
20
-18.75
30
0
11
69.5416666667
21
-16.875
31
0
70
36
71
5
72
0
3
Standard
53
0
210
0
220
0
230
1
100
AcDbRadialDimension
15
65.375
25
-18.75
35
0
40
0
0
DIMENSION
5
1D1
100
AcDbEntity
8
front
6
ByLayer
62
256
370
-1
100
AcDbDimension
2
*D19
10
63.875
20
-45.25
30
0
11
69.5416666667
21
-43.375
31
0
70
36
71
5
72
0
3
Standard
53
0
210
0
220
0
230
1
100
AcDbRadialDimension
15
65.375
25
-45.25
35
0
40
0
0
CIRCLE
5
1D2
100
AcDbEntity
8
front
6
ByLayer
62
256
370
-1
100
AcDbCircle
10
63.875
20
-54.75
40
1.5
0
CIRCLE
5
1D3
100
AcDbEntity
8
front
6
ByLayer
62
256
370
-1
100
AcDbCircle
10
63.875
20
-81.25
40
1.5
0
DIMENSION
5
1D4
100
AcDbEntity
8
front
6
ByLayer
62
256
370
-1
100
AcDbDimension
2
*D20
10
63.875
20
-54.75
30
0
11
69.5416666667
21
-52.875
31
0
70
36
71
5
72
0
3
Standard
53
0
210
0
220
0
230
1
100
AcDbRadialDimension
15
65.375
25
-54.75
35
0
40
0
0
DIMENSION
5
1D5
100
AcDbEntity
8
front
6
ByLayer
62
256
370
-1
100
AcDbDimension
2
*D21
10
63.875
20
-81.25
30
0
11
69.5416666667
21
-79.375
31
0
70
36
71
5
72
0
3
Standard
53
0
210
0
220
0
230
1
100
AcDbRadialDimension
15
65.375
25
-81.25
35
0
40
0
0
CIRCLE
5
1D6
100
AcDbEntity
8
front
6
ByLayer
62
256
370
-1
100
AcDbCircle
10
16.8749974937
20
-61.5
40
7.15
0
CIRCLE
5
1D7
100
AcDbEntity
8
front
6
ByLayer
62
256
370
-1
100
AcDbCircle
10
22.8749924812
20
-52.2804522806
40
1.6
0
CIRCLE
5
1D8
100
AcDbEntity
8
front
6
ByLayer
62
256
370
-1
100
AcDbCircle
10
10.8750025063
20
-70.7195477194
40
1.6
0
LINE
5
1D9
100
AcDbEntity
8
front
6
ByLayer
62
256
370
-1
100
AcDbLine
10
7.3750025063
20
-70.7195496224
11
7.3749974937
21
-61.500005165
0
LINE
5
1DA
100
AcDbEntity
8
front
6
ByLayer
62
256
370
-1
100
AcDbLine
10
26.3749924812
20
-52.2804503777
11
26.3749974937
21
-61.499994835
0
ARC
5
1DB
100
AcDbEntity
8
front
6
ByLayer
62
256
370
-1
100
AcDbCircle
10
10.8750025063
20
-70.7195477194
40
3.5
100
AcDbArc
50
180.00001502
51
293.888580256
0
ARC
5
1DC
100
AcDbEntity
8
front
6
ByLayer
62
256
370
-1
100
AcDbCircle
10
16.8749974937
20
-61.5
40
9.5
100
AcDbArc
50
113.888565418
51
180.000024732
0
ARC
5
1DD
100
AcDbEntity
8
front
6
ByLayer
62
256
370
-1
100
AcDbCircle
10
16.8749974937
20
-61.5
40
9.5
100
AcDbArc
50
293.888573702
51
3.60033740748e-05
0
ARC
5
1DE
100
AcDbEntity
8
front
6
ByLayer
62
256
370
-1
100
AcDbCircle
10
22.8749924812
20
-52.2804522806
40
3.5
100
AcDbArc
50
1.25240690496e-05
51
113.888555678
0
LINE
5
1DF
100
AcDbEntity
8
front
6
ByLayer
62
256
370
-1
100
AcDbLine
10
22.8749974937
20
-48.7804522806
11
22.8749924812
21
-48.7804522806
0
LINE
5
1E0
100
AcDbEntity
8
front
6
ByLayer
62
256
370
-1
100
AcDbLine
10
22.8749974937
20
-48.7804522806
11
22.8749924812
21
-48.7804522806
0
LINE
5
1E1
100
AcDbEntity
8
front
6
ByLayer
62
256
370
-1
100
AcDbLine
10
22.8749974937
20
-48.7804522806
11
22.8749924812
21
-48.7804522806
0
LINE
5
1E2
100
AcDbEntity
8
front
6
ByLayer
62
256
370
-1
100
AcDbLine
10
22.8749974937
20
-48.7804522806
11
22.8749924812
21
-48.7804522806
0
LINE
5
1E3
100
AcDbEntity
8
front
6
ByLayer
62
256
370
-1
100
AcDbLine
10
22.8749974937
20
-50.6804522806
11
22.8749924812
21
-50.6804522806
0
LINE
5
1E4
100
AcDbEntity
8
front
6
ByLayer
62
256
370
-1
100
AcDbLine
10
22.8749974937
20
-48.7804522806
11
22.8749924812
21
-48.7804522806
0
LINE
5
1E5
100
AcDbEntity
8
front
6
ByLayer
62
256
370
-1
100
AcDbLine
10
22.8749974937
20
-48.7804522806
11
22.8749924812
21
-48.7804522806
0
LINE
5
1E6
100
AcDbEntity
8
front
6
ByLayer
62
256
370
-1
100
AcDbLine
10
22.8749974937
20
-48.7804522806
11
22.8749924812
21
-48.7804522806
0
LINE
5
1E7
100
AcDbEntity
8
front
6
ByLayer
62
256
370
-1
100
AcDbLine
10
22.8749974937
20
-48.7804522806
11
22.8749924812
21
-48.7804522806
0
LINE
5
1E8
100
AcDbEntity
8
front
6
ByLayer
62
256
370
-1
100
AcDbLine
10
7.375
20
-48.7804522806
11
26.3749949875
21
-48.7804522806
0
LINE
5
1E9
100
AcDbEntity
8
front
6
ByLayer
62
256
370
-1
100
AcDbLine
10
26.3749949875
20
-74.2195477194
11
26.3749949875
21
-48.7804522806
0
LINE
5
1EA
100
AcDbEntity
8
front
6
ByLayer
62
256
370
-1
100
AcDbLine
10
7.375
20
-74.2195477194
11
7.375
21
-48.7804522806
0
LINE
5
1EB
100
AcDbEntity
8
front
6
ByLayer
62
256
370
-1
100
AcDbLine
10
7.375
20
-74.2195477194
11
26.3749949875
21
-74.2195477194
0
DIMENSION
5
1EC
100
AcDbEntity
8
front
6
ByLayer
62
256
370
-1
100
AcDbDimension
2
*D22
10
16.8749974937
20
-61.5
30
0
11
4.3442712368
21
-59.625
31
0
70
36
71
5
72
0
3
Standard
53
0
210
0
220
0
230
1
100
AcDbRadialDimension
15
9.7249974937
25
-61.5
35
0
40
0
0
DIMENSION
5
1ED
100
AcDbEntity
8
front
6
ByLayer
62
256
370
-1
100
AcDbDimension
2
*D23
10
22.8749924812
20
-52.2804522806
30
0
11
17.1083258145
21
-50.4054522806
31
0
70
36
71
5
3
Standard
53
0
210
0
220
0
230
1
100
AcDbRadialDimension
15
21.2749924812
25
-52.2804522806
35
0
40
0
0
DIMENSION
5
1EE
100
AcDbEntity
8
front
6
ByLayer
62
256
370
-1
100
AcDbDimension
2
*D24
10
10.8750025063
20
-70.7195477194
30
0
11
16.641669173
21
-68.8445477194
31
0
70
36
71
5
3
Standard
53
0
210
0
220
0
230
1
100
AcDbRadialDimension
15
12.4750025063
25
-70.7195477194
35
0
40
0
0
CIRCLE
5
1EF
100
AcDbEntity
8
front
6
ByLayer
62
256
370
-1
100
AcDbCircle
10
16.8749974937
20
-95.2804522806
40
7.15
0
CIRCLE
5
1F0
100
AcDbEntity
8
front
6
ByLayer
62
256
370
-1
100
AcDbCircle
10
22.8749924812
20
-86.0609045612
40
1.6
0
CIRCLE
5
1F1
100
AcDbEntity
8
front
6
ByLayer
62
256
370
-1
100
AcDbCircle
10
10.8750025063
20
-104.5
40
1.6
0
LINE
5
1F2
100
AcDbEntity
8
front
6
ByLayer
62
256
370
-1
100
AcDbLine
10
7.3750025063
20
-104.500001903
11
7.3749974937
21
-95.2804574456
0
LINE
5
1F3
100
AcDbEntity
8
front
6
ByLayer
62
256
370
-1
100
AcDbLine
10
26.3749924812
20
-86.0609026583
11
26.3749974937
21
-95.2804471156
0
ARC
5
1F4
100
AcDbEntity
8
front
6
ByLayer
62
256
370
-1
100
AcDbCircle
10
10.8750025063
20
-104.5
40
3.5
100
AcDbArc
50
180.00001502
51
293.888580256
0
ARC
5
1F5
100
AcDbEntity
8
front
6
ByLayer
62
256
370
-1
100
AcDbCircle
10
16.8749974937
20
-95.2804522806
40
9.5
100
AcDbArc
50
113.888565418
51
180.000024732
0
ARC
5
1F6
100
AcDbEntity
8
front
6
ByLayer
62
256
370
-1
100
AcDbCircle
10
16.8749974937
20
-95.2804522806
40
9.5
100
AcDbArc
50
293.888573702
51
3.60033740748e-05
0
ARC
5
1F7
100
AcDbEntity
8
front
6
ByLayer
62
256
370
-1
100
AcDbCircle
10
22.8749924812
20
-86.0609045612
40
3.5
100
AcDbArc
50
1.25240690496e-05
51
113.888555678
0
LINE
5
1F8
100
AcDbEntity
8
front
6
ByLayer
62
256
370
-1
100
AcDbLine
10
22.8749974937
20
-82.5609045612
11
22.8749924812
21
-82.5609045612
0
LINE
5
1F9
100
AcDbEntity
8
front
6
ByLayer
62
256
370
-1
100
AcDbLine
10
22.8749974937
20
-82.5609045612
11
22.8749924812
21
-82.5609045612
0
LINE
5
1FA
100
AcDbEntity
8
front
6
ByLayer
62
256
370
-1
100
AcDbLine
10
22.8749974937
20
-82.5609045612
11
22.8749924812
21
-82.5609045612
0
LINE
5
1FB
100
AcDbEntity
8
front
6
ByLayer
62
256
370
-1
100
AcDbLine
10
22.8749974937
20
-82.5609045612
11
22.8749924812
21
-82.5609045612
0
LINE
5
1FC
100
AcDbEntity
8
front
6
ByLayer
62
256
370
-1
100
AcDbLine
10
22.8749974937
20
-84.4609045612
11
22.8749924812
21
-84.4609045612
0
LINE
5
1FD
100
AcDbEntity
8
front
6
ByLayer
62
256
370
-1
100
AcDbLine
10
22.8749974937
20
-82.5609045612
11
22.8749924812
21
-82.5609045612
0
LINE
5
1FE
100
AcDbEntity
8
front
6
ByLayer
62
256
370
-1
100
AcDbLine
10
22.8749974937
20
-82.5609045612
11
22.8749924812
21
-82.5609045612
0
LINE
5
1FF
100
AcDbEntity
8
front
6
ByLayer
62
256
370
-1
100
AcDbLine
10
22.8749974937
20
-82.5609045612
11
22.8749924812
21
-82.5609045612
0
LINE
5
200
100
AcDbEntity
8
front
6
ByLayer
62
256
370
-1
100
AcDbLine
10
22.8749974937
20
-82.5609045612
11
22.8749924812
21
-82.5609045612
0
LINE
5
201
100
AcDbEntity
8
front
6
ByLayer
62
256
370
-1
100
AcDbLine
10
7.375
20
-82.5609045612
11
26.3749949875
21
-82.5609045612
0
LINE
5
202
100
AcDbEntity
8
front
6
ByLayer
62
256
370
-1
100
AcDbLine
10
26.3749949875
20
-108
11
26.3749949875
21
-82.5609045612
0
LINE
5
203
100
AcDbEntity
8
front
6
ByLayer
62
256
370
-1
100
AcDbLine
10
7.375
20
-108
11
7.375
21
-82.5609045612
0
LINE
5
204
100
AcDbEntity
8
front
6
ByLayer
62
256
370
-1
100
AcDbLine
10
7.375
20
-108
11
26.3749949875
21
-108
0
DIMENSION
5
205
100
AcDbEntity
8
front
6
ByLayer
62
256
370
-1
100
AcDbDimension
2
*D25
10
16.8749974937
20
-95.2804522806
30
0
11
4.3442712368
21
-93.4054522806
31
0
70
36
71
5
72
0
3
Standard
53
0
210
0
220
0
230
1
100
AcDbRadialDimension
15
9.7249974937
25
-95.2804522806
35
0
40
0
0
DIMENSION
5
206
100
AcDbEntity
8
front
6
ByLayer
62
256
370
-1
100
AcDbDimension
2
*D26
10
22.8749924812
20
-86.0609045612
30
0
11
17.1083258145
21
-84.1859045612
31
0
70
36
71
5
3
Standard
53
0
210
0
220
0
230
1
100
AcDbRadialDimension
15
21.2749924812
25
-86.0609045612
35
0
40
0
0
DIMENSION
5
207
100
AcDbEntity
8
front
6
ByLayer
62
256
370
-1
100
AcDbDimension
2
*D27
10
10.8750025063
20
-104.5
30
0
11
16.641669173
21
-102.625
31
0
70
36
71
5
3
Standard
53
0
210
0
220
0
230
1
100
AcDbRadialDimension
15
12.4750025063
25
-104.5
35
0
40
0
0
LINE
5
208
100
AcDbEntity
8
front
6
ByLayer
62
256
370
-1
100
AcDbLine
10
21.4576361051
20
-49.0802802691
11
13.0278858533
21
-52.81381948
0
LINE
5
209
100
AcDbEntity
8
front
6
ByLayer
62
256
370
-1
100
AcDbLine
10
20.72211039
20
-70.1861799638
11
12.2923602552
21
-73.9197191229
0
LINE
5
20A
100
AcDbEntity
8
front
6
ByLayer
62
256
370
-1
100
AcDbLine
10
21.4576361051
20
-82.8607325497
11
13.0278858533
21
-86.5942717606
0
LINE
5
20B
100
AcDbEntity
8
front
6
ByLayer
62
256
370
-1
100
AcDbLine
10
20.72211039
20
-103.966632244
11
12.2923602552
21
-107.700171403
0
CIRCLE
5
20C
100
AcDbEntity
8
front
6
ByLayer
62
256
370
-1
100
AcDbCircle
10
43.2499974938
20
-95.2804522806
40
7.15
0
CIRCLE
5
20D
100
AcDbEntity
8
front
6
ByLayer
62
256
370
-1
100
AcDbCircle
10
49.2499924812
20
-86.0609045612
40
1.6
0
CIRCLE
5
20E
100
AcDbEntity
8
front
6
ByLayer
62
256
370
-1
100
AcDbCircle
10
37.2500025063
20
-104.5
40
1.6
0
LINE
5
20F
100
AcDbEntity
8
front
6
ByLayer
62
256
370
-1
100
AcDbLine
10
33.7500025063
20
-104.500001903
11
33.7499974938
21
-95.2804574456
0
LINE
5
210
100
AcDbEntity
8
front
6
ByLayer
62
256
370
-1
100
AcDbLine
10
52.7499924812
20
-86.0609026583
11
52.7499974938
21
-95.2804471156
0
ARC
5
211
100
AcDbEntity
8
front
6
ByLayer
62
256
370
-1
100
AcDbCircle
10
37.2500025063
20
-104.5
40
3.5
100
AcDbArc
50
180.00001502
51
293.888580256
0
ARC
5
212
100
AcDbEntity
8
front
6
ByLayer
62
256
370
-1
100
AcDbCircle
10
43.2499974938
20
-95.2804522806
40
9.5
100
AcDbArc
50
113.888565418
51
180.000024732
0
ARC
5
213
100
AcDbEntity
8
front
6
ByLayer
62
256
370
-1
100
AcDbCircle
10
43.2499974938
20
-95.2804522806
40
9.5
100
AcDbArc
50
293.888573702
51
3.60033740748e-05
0
ARC
5
214
100
AcDbEntity
8
front
6
ByLayer
62
256
370
-1
100
AcDbCircle
10
49.2499924812
20
-86.0609045612
40
3.5
100
AcDbArc
50
1.25240690496e-05
51
113.888555678
0
LINE
5
215
100
AcDbEntity
8
front
6
ByLayer
62
256
370
-1
100
AcDbLine
10
49.2499974938
20
-82.5609045612
11
49.2499924812
21
-82.5609045612
0
LINE
5
216
100
AcDbEntity
8
front
6
ByLayer
62
256
370
-1
100
AcDbLine
10
49.2499974938
20
-82.5609045612
11
49.2499924812
21
-82.5609045612
0
LINE
5
217
100
AcDbEntity
8
front
6
ByLayer
62
256
370
-1
100
AcDbLine
10
49.2499974938
20
-82.5609045612
11
49.2499924812
21
-82.5609045612
0
LINE
5
218
100
AcDbEntity
8
front
6
ByLayer
62
256
370
-1
100
AcDbLine
10
49.2499974938
20
-82.5609045612
11
49.2499924812
21
-82.5609045612
0
LINE
5
219
100
AcDbEntity
8
front
6
ByLayer
62
256
370
-1
100
AcDbLine
10
49.2499974938
20
-84.4609045612
11
49.2499924812
21
-84.4609045612
0
LINE
5
21A
100
AcDbEntity
8
front
6
ByLayer
62
256
370
-1
100
AcDbLine
10
49.2499974938
20
-82.5609045612
11
49.2499924812
21
-82.5609045612
0
LINE
5
21B
100
AcDbEntity
8
front
6
ByLayer
62
256
370
-1
100
AcDbLine
10
49.2499974938
20
-82.5609045612
11
49.2499924812
21
-82.5609045612
0
LINE
5
21C
100
AcDbEntity
8
front
6
ByLayer
62
256
370
-1
100
AcDbLine
10
49.2499974938
20
-82.5609045612
11
49.2499924812
21
-82.5609045612
0
LINE
5
21D
100
AcDbEntity
8
front
6
ByLayer
62
256
370
-1
100
AcDbLine
10
49.2499974938
20
-82.5609045612
11
49.2499924812
21
-82.5609045612
0
LINE
5
21E
100
AcDbEntity
8
front
6
ByLayer
62
256
370
-1
100
AcDbLine
10
33.75
20
-82.5609045612
11
52.7499949875
21
-82.5609045612
0
LINE
5
21F
100
AcDbEntity
8
front
6
ByLayer
62
256
370
-1
100
AcDbLine
10
52.7499949875
20
-108
11
52.7499949875
21
-82.5609045612
0
LINE
5
220
100
AcDbEntity
8
front
6
ByLayer
62
256
370
-1
100
AcDbLine
10
33.75
20
-108
11
33.75
21
-82.5609045612
0
LINE
5
221
100
AcDbEntity
8
front
6
ByLayer
62
256
370
-1
100
AcDbLine
10
33.75
20
-108
11
52.7499949875
21
-108
0
DIMENSION
5
222
100
AcDbEntity
8
front
6
ByLayer
62
256
370
-1
100
AcDbDimension
2
*D28
10
43.2499974938
20
-95.2804522806
30
0
11
30.7192712368
21
-93.4054522806
31
0
70
36
71
5
72
0
3
Standard
53
0
210
0
220
0
230
1
100
AcDbRadialDimension
15
36.0999974938
25
-95.2804522806
35
0
40
0
0
DIMENSION
5
223
100
AcDbEntity
8
front
6
ByLayer
62
256
370
-1
100
AcDbDimension
2
*D29
10
37.2500025063
20
-104.5
30
0
11
43.016669173
21
-102.625
31
0
70
36
71
5
3
Standard
53
0
210
0
220
0
230
1
100
AcDbRadialDimension
15
38.8500025063
25
-104.5
35
0
40
0
0
DIMENSION
5
224
100
AcDbEntity
8
front
6
ByLayer
62
256
370
-1
100
AcDbDimension
2
*D30
10
49.2499924812
20
-86.0609045612
30
0
11
43.4833258145
21
-84.1859045612
31
0
70
36
71
5
3
Standard
53
0
210
0
220
0
230
1
100
AcDbRadialDimension
15
47.6499924812
25
-86.0609045612
35
0
40
0
0
DIMENSION
5
225
100
AcDbEntity
8
front
6
ByLayer
62
256
370
-1
100
AcDbDimension
2
*D31
10
52.7499949875
20
-113.179649014
30
0
11
43.2499974938
21
-111.304649014
31
0
70
32
71
5
3
Standard
53
0
210
0
220
0
230
1
100
AcDbAlignedDimension
13
33.75
23
-108
33
0
14
52.7499949875
24
-108
34
0
100
AcDbRotatedDimension
0
CIRCLE
5
226
100
AcDbEntity
8
front
6
ByLayer
62
256
370
-1
100
AcDbCircle
10
43.5833308271
20
-61.5
40
7.15
0
CIRCLE
5
227
100
AcDbEntity
8
front
6
ByLayer
62
256
370
-1
100
AcDbCircle
10
49.5833258145
20
-52.2804522806
40
1.6
0
CIRCLE
5
228
100
AcDbEntity
8
front
6
ByLayer
62
256
370
-1
100
AcDbCircle
10
37.5833358396
20
-70.7195477194
40
1.6
0
LINE
5
229
100
AcDbEntity
8
front
6
ByLayer
62
256
370
-1
100
AcDbLine
10
34.0833358396
20
-70.7195496224
11
34.0833308271
21
-61.500005165
0
LINE
5
22A
100
AcDbEntity
8
front
6
ByLayer
62
256
370
-1
100
AcDbLine
10
53.0833258145
20
-52.2804503777
11
53.0833308271
21
-61.499994835
0
ARC
5
22B
100
AcDbEntity
8
front
6
ByLayer
62
256
370
-1
100
AcDbCircle
10
37.5833358396
20
-70.7195477194
40
3.5
100
AcDbArc
50
180.00001502
51
293.888580256
0
ARC
5
22C
100
AcDbEntity
8
front
6
ByLayer
62
256
370
-1
100
AcDbCircle
10
43.5833308271
20
-61.5
40
9.5
100
AcDbArc
50
113.888565418
51
180.000024732
0
ARC
5
22D
100
AcDbEntity
8
front
6
ByLayer
62
256
370
-1
100
AcDbCircle
10
43.5833308271
20
-61.5
40
9.5
100
AcDbArc
50
293.888573702
51
3.60033740748e-05
0
ARC
5
22E
100
AcDbEntity
8
front
6
ByLayer
62
256
370
-1
100
AcDbCircle
10
49.5833258145
20
-52.2804522806
40
3.5
100
AcDbArc
50
1.25240690496e-05
51
113.888555678
0
LINE
5
22F
100
AcDbEntity
8
front
6
ByLayer
62
256
370
-1
100
AcDbLine
10
49.5833308271
20
-48.7804522806
11
49.5833258145
21
-48.7804522806
0
LINE
5
230
100
AcDbEntity
8
front
6
ByLayer
62
256
370
-1
100
AcDbLine
10
49.5833308271
20
-48.7804522806
11
49.5833258145
21
-48.7804522806
0
LINE
5
231
100
AcDbEntity
8
front
6
ByLayer
62
256
370
-1
100
AcDbLine
10
49.5833308271
20
-48.7804522806
11
49.5833258145
21
-48.7804522806
0
LINE
5
232
100
AcDbEntity
8
front
6
ByLayer
62
256
370
-1
100
AcDbLine
10
49.5833308271
20
-48.7804522806
11
49.5833258145
21
-48.7804522806
0
LINE
5
233
100
AcDbEntity
8
front
6
ByLayer
62
256
370
-1
100
AcDbLine
10
49.5833308271
20
-50.6804522806
11
49.5833258145
21
-50.6804522806
0
LINE
5
234
100
AcDbEntity
8
front
6
ByLayer
62
256
370
-1
100
AcDbLine
10
49.5833308271
20
-48.7804522806
11
49.5833258145
21
-48.7804522806
0
LINE
5
235
100
AcDbEntity
8
front
6
ByLayer
62
256
370
-1
100
AcDbLine
10
49.5833308271
20
-48.7804522806
11
49.5833258145
21
-48.7804522806
0
LINE
5
236
100
AcDbEntity
8
front
6
ByLayer
62
256
370
-1
100
AcDbLine
10
49.5833308271
20
-48.7804522806
11
49.5833258145
21
-48.7804522806
0
LINE
5
237
100
AcDbEntity
8
front
6
ByLayer
62
256
370
-1
100
AcDbLine
10
49.5833308271
20
-48.7804522806
11
49.5833258145
21
-48.7804522806
0
LINE
5
238
100
AcDbEntity
8
front
6
ByLayer
62
256
370
-1
100
AcDbLine
10
34.0833333333
20
-48.7804522806
11
53.0833283208
21
-48.7804522806
0
LINE
5
239
100
AcDbEntity
8
front
6
ByLayer
62
256
370
-1
100
AcDbLine
10
53.0833283208
20
-74.2195477194
11
53.0833283208
21
-48.7804522806
0
LINE
5
23A
100
AcDbEntity
8
front
6
ByLayer
62
256
370
-1
100
AcDbLine
10
34.0833333333
20
-74.2195477194
11
34.0833333333
21
-48.7804522806
0
LINE
5
23B
100
AcDbEntity
8
front
6
ByLayer
62
256
370
-1
100
AcDbLine
10
34.0833333333
20
-74.2195477194
11
53.0833283208
21
-74.2195477194
0
DIMENSION
5
23C
100
AcDbEntity
8
front
6
ByLayer
62
256
370
-1
100
AcDbDimension
2
*D32
10
43.5833308271
20
-61.5
30
0
11
31.0526045701
21
-59.625
31
0
70
36
71
5
72
0
3
Standard
53
0
210
0
220
0
230
1
100
AcDbRadialDimension
15
36.4333308271
25
-61.5
35
0
40
0
0
DIMENSION
5
23D
100
AcDbEntity
8
front
6
ByLayer
62
256
370
-1
100
AcDbDimension
2
*D33
10
49.5833258145
20
-52.2804522806
30
0
11
43.8166591478
21
-50.4054522806
31
0
70
36
71
5
3
Standard
53
0
210
0
220
0
230
1
100
AcDbRadialDimension
15
47.9833258145
25
-52.2804522806
35
0
40
0
0
DIMENSION
5
23E
100
AcDbEntity
8
front
6
ByLayer
62
256
370
-1
100
AcDbDimension
2
*D34
10
37.5833358396
20
-70.7195477194
30
0
11
43.3500025063
21
-68.8445477194
31
0
70
36
71
5
3
Standard
53
0
210
0
220
0
230
1
100
AcDbRadialDimension
15
39.1833358396
25
-70.7195477194
35
0
40
0
0
LINE
5
23F
100
AcDbEntity
8
front
6
ByLayer
62
256
370
-1
100
AcDbLine
10
39.7362191867
20
-52.81381948
11
48.1659694384
21
-49.0802802691
0
LINE
5
240
100
AcDbEntity
8
front
6
ByLayer
62
256
370
-1
100
AcDbLine
10
47.4304437234
20
-70.1861799638
11
39.0006935885
21
-73.9197191229
0
LINE
5
241
100
AcDbEntity
8
front
6
ByLayer
62
256
370
-1
100
AcDbLine
10
39.4028858534
20
-86.5942717606
11
47.8326361051
21
-82.8607325497
0
LINE
5
242
100
AcDbEntity
8
front
6
ByLayer
62
256
370
-1
100
AcDbLine
10
47.0971103901
20
-103.966632244
11
38.6673602552
21
-107.700171403
0
CIRCLE
5
243
100
AcDbEntity
8
front
6
ByLayer
62
256
370
-1
100
AcDbCircle
10
120.020833333
20
-104
40
8
0
DIMENSION
5
244
100
AcDbEntity
8
front
6
ByLayer
62
256
370
-1
100
AcDbDimension
2
*D35
10
120.020833333
20
-104
30
0
11
116.020833333
21
-102.125
31
0
70
36
71
5
3
Standard
53
0
210
0
220
0
230
1
100
AcDbRadialDimension
15
112.020833333
25
-104
35
0
40
0
0
MTEXT
5
245
100
AcDbEntity
8
front
6
ByLayer
62
256
370
-1
100
AcDbMText
10
90.5122771109
20
-93.9103150104
30
0
40
3
41
37.2500046286
71
8
72
1
1
Master start/stop
7
standard
210
0
220
0
230
1
50
0
73
2
44
1
0
CIRCLE
5
246
100
AcDbEntity
8
back
6
ByLayer
62
256
370
-1
100
AcDbCircle
10
7.5
20
-7.5
40
2.5
0
CIRCLE
5
247
100
AcDbEntity
8
back
6
ByLayer
62
256
370
-1
100
AcDbCircle
10
7.5
20
-115.5
40
2.5
0
CIRCLE
5
248
100
AcDbEntity
8
back
6
ByLayer
62
256
370
-1
100
AcDbCircle
10
242.5
20
-7.5
40
2.5
0
CIRCLE
5
249
100
AcDbEntity
8
back
6
ByLayer
62
256
370
-1
100
AcDbCircle
10
242.5
20
-115.5
40
2.5
0
LINE
5
24A
100
AcDbEntity
8
hilfslinien
6
ByLayer
62
256
370
-1
100
AcDbLine
10
151.375
20
-50
11
161.375
21
-50
0
LINE
5
24B
100
AcDbEntity
8
back
6
ByLayer
62
256
370
13
100
AcDbLine
10
97.125
20
-20.5
11
205.625
21
-20.5
0
LINE
5
24C
100
AcDbEntity
8
back
6
ByLayer
62
256
370
13
100
AcDbLine
10
205.625
20
-20.5
11
205.625
21
-79.5
0
LINE
5
24D
100
AcDbEntity
8
back
6
ByLayer
62
256
370
13
100
AcDbLine
10
205.625
20
-79.5
11
97.125
21
-79.5
0
LINE
5
24E
100
AcDbEntity
8
back
6
ByLayer
62
256
370
13
100
AcDbLine
10
97.125
20
-79.5
11
97.125
21
-20.5
0
CIRCLE
5
24F
100
AcDbEntity
8
back
6
ByLayer
62
256
370
13
100
AcDbCircle
10
97.125
20
-20.5
40
0
0
CIRCLE
5
250
100
AcDbEntity
8
back
6
ByLayer
62
256
370
13
100
AcDbCircle
10
104.375
20
-24.5
40
1.5
0
CIRCLE
5
251
100
AcDbEntity
8
back
6
ByLayer
62
256
370
13
100
AcDbCircle
10
104.375
20
-75.5
40
1.5
0
CIRCLE
5
252
100
AcDbEntity
8
back
6
ByLayer
62
256
370
13
100
AcDbCircle
10
198.375
20
-24.5
40
1.5
0
CIRCLE
5
253
100
AcDbEntity
8
back
6
ByLayer
62
256
370
13
100
AcDbCircle
10
198.375
20
-75.5
40
1.5
0
DIMENSION
5
254
100
AcDbEntity
8
back
6
ByLayer
62
256
370
13
100
AcDbDimension
2
*D36
10
104.375
20
-24.5
30
0
11
110.041666667
21
-22.625
31
0
70
36
71
5
3
Standard
53
0
210
0
220
0
230
1
100
AcDbRadialDimension
15
105.875
25
-24.5
35
0
40
0
0
DIMENSION
5
255
100
AcDbEntity
8
back
6
ByLayer
62
256
370
13
100
AcDbDimension
2
*D37
10
198.375
20
-24.5
30
0
11
192.708333333
21
-22.625
31
0
70
36
71
5
3
Standard
53
0
210
0
220
0
230
1
100
AcDbRadialDimension
15
196.875
25
-24.5
35
0
40
0
0
DIMENSION
5
256
100
AcDbEntity
8
back
6
ByLayer
62
256
370
13
100
AcDbDimension
2
*D38
10
198.375
20
-75.5
30
0
11
192.708333333
21
-73.625
31
0
70
36
71
5
3
Standard
53
0
210
0
220
0
230
1
100
AcDbRadialDimension
15
196.875
25
-75.5
35
0
40
0
0
DIMENSION
5
257
100
AcDbEntity
8
back
6
ByLayer
62
256
370
13
100
AcDbDimension
2
*D39
10
104.375
20
-75.5
30
0
11
110.041666667
21
-73.625
31
0
70
36
71
5
3
Standard
53
0
210
0
220
0
230
1
100
AcDbRadialDimension
15
105.875
25
-75.5
35
0
40
0
0
CIRCLE
5
258
100
AcDbEntity
8
front
6
ByLayer
62
256
370
-1
100
AcDbCircle
10
180.854166667
20
-104
40
3
0
DIMENSION
5
259
100
AcDbEntity
8
front
6
ByLayer
62
256
370
-1
100
AcDbDimension
2
*D40
10
180.854166667
20
-104
30
0
11
186.909722222
21
-102.125
31
0
70
36
71
5
3
Standard
53
0
210
0
220
0
230
1
100
AcDbRadialDimension
15
183.854166667
25
-104
35
0
40
0
0
LEADER
5
25A
100
AcDbEntity
8
front
6
ByLayer
62
256
370
-1
100
AcDbLeader
3
Standard
71
1
72
0
73
3
74
0
75
0
40
1
41
10
76
3
76
3
10
178.976279643
20
-101.660440142
30
0
10
174.300267055
20
-97.0786297523
30
0
10
156.6496071
20
-97.0786297523
30
0
0
MTEXT
5
25B
100
AcDbEntity
8
front
6
ByLayer
62
256
370
-1
100
AcDbMText
10
166.019262529
20
-96.2548839033
30
0
40
3
41
14.6666666667
71
8
72
1
1
Encoder
7
standard
210
0
220
0
230
1
50
0
73
2
44
1
0
LEADER
5
25C
100
AcDbEntity
8
front
6
ByLayer
62
256
370
-1
100
AcDbLeader
3
Standard
71
1
72
0
73
3
74
0
75
0
40
1
41
10
76
3
76
3
10
115.742610681
20
-97.240058363
30
0
10
112.675368339
20
-94.6219075505
30
0
10
71.3973549782
20
-94.6219075505
30
0
0
DIMENSION
5
25D
100
AcDbEntity
8
back
6
ByLayer
62
256
370
-1
100
AcDbDimension
2
*D43
10
7.5
20
-7.5
30
0
11
14.4444444444
21
-5.625
31
0
70
36
71
5
3
Standard
53
0
210
0
220
0
230
1
100
AcDbRadialDimension
15
10
25
-7.5
35
0
40
0
0
DIMENSION
5
25E
100
AcDbEntity
8
back
6
ByLayer
62
256
370
-1
100
AcDbDimension
2
*D44
10
242.5
20
-7.5
30
0
11
235.555555556
21
-5.625
31
0
70
36
71
5
3
Standard
53
0
210
0
220
0
230
1
100
AcDbRadialDimension
15
240
25
-7.5
35
0
40
0
0
DIMENSION
5
25F
100
AcDbEntity
8
back
6
ByLayer
62
256
370
-1
100
AcDbDimension
2
*D45
10
242.5
20
-115.5
30
0
11
235.555555556
21
-113.625
31
0
70
36
71
5
3
Standard
53
0
210
0
220
0
230
1
100
AcDbRadialDimension
15
240
25
-115.5
35
0
40
0
0
DIMENSION
5
260
100
AcDbEntity
8
back
6
ByLayer
62
256
370
-1
100
AcDbDimension
2
*D46
10
7.5
20
-115.5
30
0
11
14.4444444444
21
-113.625
31
0
70
36
71
5
3
Standard
53
0
210
0
220
0
230
1
100
AcDbRadialDimension
15
10
25
-115.5
35
0
40
0
0
DIMENSION
5
261
100
AcDbEntity
8
back
6
ByLayer
62
256
370
-1
100
AcDbDimension
2
*D47
10
205.625
20
-92.4014380099
30
0
11
151.375
21
-90.5264380099
31
0
70
32
71
5
3
Standard
53
0
210
0
220
0
230
1
100
AcDbAlignedDimension
13
97.125
23
-79.5
33
0
14
205.625
24
-79.5
34
0
100
AcDbRotatedDimension
0
DIMENSION
5
262
100
AcDbEntity
8
back
6
ByLayer
62
256
370
-1
100
AcDbDimension
2
*D48
10
221.375
20
-20.5
30
0
11
219.5
21
-50
31
0
70
32
71
5
3
Standard
53
0
210
0
220
0
230
1
100
AcDbAlignedDimension
13
205.625
23
-79.5
33
0
14
205.625
24
-20.5
34
0
50
90
100
AcDbRotatedDimension
0
ENDSEC
0
SECTION
2
OBJECTS
0
DICTIONARY
5
C
330
0
100
AcDbDictionary
281
1
3
ACAD_GROUP
350
D
0
DICTIONARY
5
D
330
C
100
AcDbDictionary
281
1
0
ENDSEC
0
EOF
